<svg xmlns="http://www.w3.org/2000/svg" version="1.1" xmlns:xlink="http://www.w3.org/1999/xlink" xmlns:svgjs="http://svgjs.dev/svgjs" width="765" height="625" viewBox="0 0 322.0320190429687 300" class="svg-animations " style="background: rgb(0, 100, 255);"><svg viewBox="0 0 109.0260009765625 139" width="80" height="80" fill="#ffffff" x="121.01600952148436" y="86.94000005722046"><svg width="109" height="134" viewBox="0 0 109 134" xmlns="http://www.w3.org/2000/svg">
	<g clip-path="url(#clip0)">
	<path d="M108.271 15.5108C107.477 14.8831 88.5723 0 54.5 0C20.4277 0 1.52329 14.8831 0.729097 15.5108C0.273411 15.877 0 16.4525 0 17.041V86.7874C0 87.1667 0.104157 87.546 0.32549 87.8598C18.2274 115.324 52.1695 133.045 53.6147 133.778C53.9011 133.922 54.2006 134 54.513 134C54.8255 134 55.1249 133.922 55.4114 133.778C56.8435 133.032 90.7986 115.311 108.701 87.8598C108.909 87.546 109.026 87.1667 109.026 86.7874V17.041C109 16.4525 108.727 15.877 108.271 15.5108ZM54.5 129.815C52.4689 128.703 47.17 125.708 40.4909 121.157V104.875C40.4909 104.352 40.2826 103.855 39.9181 103.488L34.0983 97.6424C45.5816 88.9192 48.0293 74.5723 48.537 69.6549C54.7994 68.7917 62.0253 66.1368 63.3924 58.6299C63.5877 57.5575 62.8846 56.5374 61.817 56.3543C60.7494 56.1581 59.7339 56.8643 59.5516 57.9368C58.5231 63.6258 51.9742 65.4306 46.5971 65.9407C46.506 65.9407 46.4148 65.9537 46.3237 65.9668C42.509 66.2938 39.3582 65.993 39.2801 65.9799C38.8635 65.9407 38.4338 66.0322 38.0693 66.2545C34.0072 68.7002 30.2315 69.3802 26.8594 68.2686C22.2244 66.7384 19.282 62.2003 18.0582 59.9377C21.7818 57.0344 32.9526 48.455 38.9676 45.0023C40.5039 44.113 41.7538 43.276 42.8475 42.5306C47.0658 39.6664 49.852 37.7701 64.6553 37.7701C67.3503 37.7701 69.4725 38.7509 71.1781 40.7911C78.8987 50.0113 74.8626 75.9063 74.4851 78.1688C74.0815 79.3067 73.756 80.4968 73.4826 81.7C73.3524 81.9746 73.2742 82.2885 73.2873 82.6024C70.5792 96.0076 74.7455 112.199 75.8 115.965C65.8791 123.42 57.2341 128.324 54.5 129.815ZM45.1389 36.5669L39.3192 27.5821C45.0999 25.3326 61.6217 19.8528 74.2768 25.1364C80.6173 27.7913 85.2002 32.8526 87.8822 40.1895C87.9213 40.3072 91.8272 51.5676 90.0044 73.5653L78.3128 78.9405C78.5602 77.4888 83.3254 49.1874 74.1726 38.2409C71.7249 35.3113 68.5221 33.8204 64.6553 33.8204C53.7318 33.8204 48.7063 34.8928 45.1389 36.5669ZM105.094 86.212C98.0245 96.8839 88.2858 106.104 79.1721 113.336C77.8571 108.131 74.9928 94.8306 77.0369 83.8579L92.6734 76.6779C93.3114 76.3902 93.741 75.7755 93.8061 75.0693C95.9544 51.3453 91.749 39.3656 91.5668 38.8686C88.4941 30.4462 83.1822 24.6133 75.774 21.5268C58.6663 14.3861 36.5199 24.4825 35.5825 24.9141C35.0618 25.1495 34.6842 25.6073 34.528 26.1565C34.3717 26.7058 34.4629 27.2944 34.7623 27.7652L41.7408 38.5417C41.3893 38.7771 41.0247 39.0256 40.6602 39.2741C39.5665 40.0195 38.4338 40.7781 37.0277 41.5889C29.5284 45.8917 15.0116 57.3352 14.3997 57.819C13.7096 58.3683 13.4623 59.2969 13.8008 60.1077C13.957 60.487 17.6546 69.3279 25.6095 71.9828C29.9451 73.4214 34.6321 72.7414 39.5145 69.9426C40.4519 70.008 42.2876 70.1126 44.54 70.0211C43.863 75.2524 41.0768 88.5922 29.9971 95.746C29.5024 96.073 29.1769 96.5961 29.1118 97.1847C29.0467 97.7732 29.255 98.3617 29.6716 98.7802L36.559 105.699V118.437C25.8309 110.695 12.7592 99.578 3.90588 86.212V18.0349C7.62948 15.3801 25.4273 3.92348 54.5 3.92348C83.4946 3.92348 101.358 15.3801 105.094 18.0349V86.212Z"></path>
	<path d="M48.1986 47.5659C46.7273 47.5659 45.5295 48.7691 45.5295 50.247C45.5295 51.7248 46.7273 52.928 48.1986 52.928C49.6698 52.928 50.8676 51.7248 50.8676 50.247C50.8676 48.7691 49.6698 47.5659 48.1986 47.5659Z"></path>
	</g>
	</svg></svg><svg fill="#ffffff" x="70.23100585937499" y="166.94000005722046"><path d="M6.02 14.96L9.70 14.96Q11.02 14.96 12.04 14.61Q13.06 14.26 13.75 13.62Q14.45 12.99 14.80 12.11Q15.15 11.23 15.15 10.18L15.15 10.18Q15.15 7.98 13.80 6.75Q12.45 5.52 9.70 5.52L9.70 5.52L6.02 5.52L6.02 14.96ZM2.93 3.07L9.70 3.07Q11.87 3.07 13.48 3.58Q15.09 4.08 16.14 5.01Q17.20 5.94 17.72 7.25Q18.24 8.56 18.24 10.18L18.24 10.18Q18.24 11.78 17.68 13.10Q17.12 14.43 16.04 15.39Q14.96 16.35 13.37 16.89Q11.78 17.42 9.70 17.42L9.70 17.42L6.02 17.42L6.02 26L2.93 26L2.93 3.07ZM30.26 22.06L30.26 18.70Q28.29 18.77 26.90 19.02Q25.52 19.26 24.65 19.66Q23.78 20.06 23.38 20.61Q22.99 21.15 22.99 21.82L22.99 21.82Q22.99 22.46 23.20 22.93Q23.41 23.39 23.77 23.69Q24.13 23.98 24.62 24.12Q25.10 24.26 25.66 24.26L25.66 24.26Q26.42 24.26 27.04 24.10Q27.66 23.95 28.22 23.66Q28.77 23.38 29.27 22.98Q29.78 22.58 30.26 22.06L30.26 22.06ZM21.57 12.99L21.06 12.08Q22.40 10.78 23.95 10.14Q25.50 9.50 27.39 9.50L27.39 9.50Q28.75 9.50 29.81 9.95Q30.86 10.40 31.58 11.20Q32.30 12 32.67 13.14Q33.04 14.27 33.04 15.63L33.04 15.63L33.04 26L31.78 26Q31.36 26 31.14 25.86Q30.91 25.73 30.78 25.33L30.78 25.33L30.46 23.79Q29.82 24.38 29.22 24.84Q28.61 25.30 27.94 25.61Q27.26 25.92 26.50 26.09Q25.74 26.26 24.82 26.26L24.82 26.26Q23.87 26.26 23.04 25.99Q22.21 25.73 21.59 25.20Q20.98 24.67 20.62 23.86Q20.26 23.06 20.26 21.95L20.26 21.95Q20.26 20.99 20.78 20.10Q21.31 19.22 22.50 18.53Q23.68 17.84 25.58 17.40Q27.49 16.96 30.26 16.90L30.26 16.90L30.26 15.63Q30.26 13.74 29.44 12.78Q28.62 11.81 27.06 11.81L27.06 11.81Q26 11.81 25.29 12.07Q24.58 12.34 24.06 12.66Q23.54 12.99 23.16 13.26Q22.78 13.52 22.42 13.52L22.42 13.52Q22.13 13.52 21.92 13.37Q21.71 13.22 21.57 12.99L21.57 12.99ZM39.84 10.38L40.06 12.14Q40.59 11.55 41.18 11.07Q41.78 10.59 42.44 10.25Q43.10 9.90 43.85 9.72Q44.59 9.54 45.46 9.54L45.46 9.54Q46.78 9.54 47.80 9.98Q48.82 10.42 49.50 11.22Q50.18 12.03 50.53 13.17Q50.88 14.30 50.88 15.68L50.88 15.68L50.88 26L48.02 26L48.02 15.68Q48.02 13.84 47.18 12.82Q46.34 11.81 44.62 11.81L44.62 11.81Q43.36 11.81 42.26 12.42Q41.17 13.02 40.24 14.06L40.24 14.06L40.24 26L37.38 26L37.38 9.79L39.09 9.79Q39.70 9.79 39.84 10.38L39.84 10.38ZM55.39 9.79L58.24 9.79L58.24 26L55.39 26L55.39 9.79ZM58.85 4.70L58.85 4.70Q58.85 5.12 58.68 5.48Q58.51 5.84 58.23 6.12Q57.95 6.40 57.58 6.56Q57.20 6.72 56.78 6.72L56.78 6.72Q56.37 6.72 56.01 6.56Q55.65 6.40 55.38 6.12Q55.10 5.84 54.94 5.48Q54.78 5.12 54.78 4.70L54.78 4.70Q54.78 4.29 54.94 3.91Q55.10 3.54 55.38 3.26Q55.65 2.98 56.01 2.82Q56.37 2.66 56.78 2.66L56.78 2.66Q57.20 2.66 57.58 2.82Q57.95 2.98 58.23 3.26Q58.51 3.54 58.68 3.91Q58.85 4.29 58.85 4.70ZM74.94 11.65L74.19 12.67Q74.06 12.85 73.94 12.94Q73.81 13.04 73.58 13.04L73.58 13.04Q73.34 13.04 73.06 12.84Q72.77 12.64 72.34 12.40Q71.92 12.16 71.30 11.96Q70.69 11.76 69.79 11.76L69.79 11.76Q68.59 11.76 67.68 12.18Q66.77 12.61 66.15 13.41Q65.54 14.21 65.22 15.34Q64.91 16.48 64.91 17.89L64.91 17.89Q64.91 19.36 65.25 20.50Q65.58 21.65 66.20 22.42Q66.82 23.20 67.69 23.61Q68.56 24.02 69.65 24.02L69.65 24.02Q70.69 24.02 71.36 23.77Q72.03 23.52 72.47 23.22Q72.91 22.91 73.21 22.66Q73.50 22.42 73.79 22.42L73.79 22.42Q74.14 22.42 74.34 22.69L74.34 22.69L75.14 23.73Q74.61 24.38 73.94 24.85Q73.26 25.31 72.49 25.62Q71.71 25.94 70.86 26.08Q70.02 26.22 69.14 26.22L69.14 26.22Q67.62 26.22 66.31 25.66Q65.01 25.10 64.05 24.04Q63.09 22.98 62.54 21.42Q62.00 19.87 62.00 17.89L62.00 17.89Q62.00 16.08 62.50 14.54Q63.01 13.01 63.98 11.90Q64.94 10.78 66.36 10.16Q67.78 9.54 69.62 9.54L69.62 9.54Q71.33 9.54 72.63 10.09Q73.94 10.64 74.94 11.65L74.94 11.65ZM90.14 23.54L95.10 23.54Q96.43 23.54 97.39 23.23Q98.35 22.93 98.97 22.38Q99.58 21.82 99.87 21.06Q100.16 20.30 100.16 19.39L100.16 19.39Q100.16 17.62 98.90 16.58Q97.63 15.55 95.10 15.55L95.10 15.55L90.14 15.55L90.14 23.54ZM94.37 5.52L90.14 5.52L90.14 13.34L94.24 13.34Q95.55 13.34 96.52 13.06Q97.49 12.77 98.12 12.26Q98.75 11.74 99.06 11.02Q99.36 10.29 99.36 9.42L99.36 9.42Q99.36 7.39 98.14 6.46Q96.93 5.52 94.37 5.52L94.37 5.52ZM87.06 3.07L94.37 3.07Q96.48 3.07 98.01 3.49Q99.54 3.90 100.52 4.67Q101.50 5.44 101.97 6.55Q102.43 7.66 102.43 9.06L102.43 9.06Q102.43 9.90 102.17 10.68Q101.90 11.46 101.38 12.13Q100.85 12.80 100.04 13.34Q99.23 13.87 98.14 14.21L98.14 14.21Q100.67 14.69 101.94 16.01Q103.22 17.33 103.22 19.47L103.22 19.47Q103.22 20.93 102.68 22.13Q102.14 23.33 101.11 24.19Q100.08 25.06 98.58 25.53Q97.07 26 95.15 26L95.15 26L87.06 26L87.06 3.07ZM117.55 9.79L120.40 9.79L120.40 26L118.70 26Q118.10 26 117.94 25.41L117.94 25.41L117.71 23.66Q116.66 24.83 115.34 25.54Q114.03 26.26 112.34 26.26L112.34 26.26Q111.01 26.26 109.99 25.82Q108.98 25.38 108.29 24.58Q107.60 23.78 107.26 22.64Q106.91 21.50 106.91 20.13L106.91 20.13L106.91 9.79L109.76 9.79L109.76 20.13Q109.76 21.97 110.60 22.98Q111.44 23.98 113.17 23.98L113.17 23.98Q114.43 23.98 115.53 23.38Q116.62 22.78 117.55 21.73L117.55 21.73L117.55 9.79ZM129.89 26.26L129.89 26.26Q127.97 26.26 126.94 25.18Q125.90 24.11 125.90 22.10L125.90 22.10L125.90 12.18L123.95 12.18Q123.70 12.18 123.52 12.02Q123.34 11.87 123.34 11.55L123.34 11.55L123.34 10.42L126.00 10.08L126.66 5.07Q126.70 4.83 126.87 4.68Q127.04 4.53 127.31 4.53L127.31 4.53L128.75 4.53L128.75 10.11L133.44 10.11L133.44 12.18L128.75 12.18L128.75 21.90Q128.75 22.93 129.25 23.42Q129.74 23.92 130.53 23.92L130.53 23.92Q130.98 23.92 131.30 23.80Q131.63 23.68 131.87 23.54Q132.11 23.39 132.28 23.27Q132.45 23.15 132.58 23.15L132.58 23.15Q132.80 23.15 132.98 23.42L132.98 23.42L133.81 24.78Q133.07 25.47 132.03 25.86Q130.99 26.26 129.89 26.26ZM141.36 26.26L141.36 26.26Q139.44 26.26 138.41 25.18Q137.38 24.11 137.38 22.10L137.38 22.10L137.38 12.18L135.42 12.18Q135.17 12.18 134.99 12.02Q134.82 11.87 134.82 11.55L134.82 11.55L134.82 10.42L137.47 10.08L138.13 5.07Q138.18 4.83 138.34 4.68Q138.51 4.53 138.78 4.53L138.78 4.53L140.22 4.53L140.22 10.11L144.91 10.11L144.91 12.18L140.22 12.18L140.22 21.90Q140.22 22.93 140.72 23.42Q141.22 23.92 142 23.92L142 23.92Q142.45 23.92 142.78 23.80Q143.10 23.68 143.34 23.54Q143.58 23.39 143.75 23.27Q143.92 23.15 144.05 23.15L144.05 23.15Q144.27 23.15 144.45 23.42L144.45 23.42L145.28 24.78Q144.54 25.47 143.50 25.86Q142.46 26.26 141.36 26.26ZM154.69 9.54L154.69 9.54Q156.46 9.54 157.89 10.13Q159.31 10.72 160.32 11.81Q161.33 12.90 161.86 14.44Q162.40 15.98 162.40 17.89L162.40 17.89Q162.40 19.81 161.86 21.34Q161.33 22.88 160.32 23.97Q159.31 25.06 157.89 25.64Q156.46 26.22 154.69 26.22L154.69 26.22Q152.90 26.22 151.46 25.64Q150.03 25.06 149.02 23.97Q148.02 22.88 147.48 21.34Q146.94 19.81 146.94 17.89L146.94 17.89Q146.94 15.98 147.48 14.44Q148.02 12.90 149.02 11.81Q150.03 10.72 151.46 10.13Q152.90 9.54 154.69 9.54ZM154.69 24L154.69 24Q157.09 24 158.27 22.39Q159.46 20.78 159.46 17.90L159.46 17.90Q159.46 15.01 158.27 13.39Q157.09 11.78 154.69 11.78L154.69 11.78Q153.47 11.78 152.57 12.19Q151.66 12.61 151.06 13.39Q150.46 14.18 150.17 15.32Q149.87 16.46 149.87 17.90L149.87 17.90Q149.87 20.78 151.06 22.39Q152.26 24 154.69 24ZM168.46 10.38L168.69 12.14Q169.22 11.55 169.81 11.07Q170.40 10.59 171.06 10.25Q171.73 9.90 172.47 9.72Q173.22 9.54 174.08 9.54L174.08 9.54Q175.41 9.54 176.42 9.98Q177.44 10.42 178.12 11.22Q178.80 12.03 179.15 13.17Q179.50 14.30 179.50 15.68L179.50 15.68L179.50 26L176.64 26L176.64 15.68Q176.64 13.84 175.80 12.82Q174.96 11.81 173.25 11.81L173.25 11.81Q171.98 11.81 170.89 12.42Q169.79 13.02 168.86 14.06L168.86 14.06L168.86 26L166.00 26L166.00 9.79L167.71 9.79Q168.32 9.79 168.46 10.38L168.46 10.38Z"></path></svg><svg fill="#ffffff" x="26.83600158691405" y="198.54000043869019"><path d="M3.02 11.74L8.54 11.74L8.53 13L1.46 13L1.46 1.54L8.53 1.54L8.53 2.80L3.02 2.80L3.02 6.61L7.48 6.61L7.48 7.82L3.02 7.82L3.02 11.74ZM14.18 8.77L17.02 13L15.66 13Q15.48 13 15.38 12.91Q15.28 12.82 15.22 12.70L15.22 12.70L13.18 9.53Q13.14 9.64 13.11 9.75Q13.07 9.86 13.01 9.94L13.01 9.94L11.12 12.70Q11.04 12.82 10.95 12.91Q10.86 13 10.70 13L10.70 13L9.42 13L12.26 8.84L9.54 4.90L10.90 4.90Q11.08 4.90 11.16 4.95Q11.24 5.01 11.30 5.11L11.30 5.11L13.30 8.15Q13.36 7.92 13.50 7.70L13.50 7.70L15.24 5.14Q15.31 5.03 15.40 4.96Q15.48 4.90 15.60 4.90L15.60 4.90L16.91 4.90L14.18 8.77ZM20.82 13.13L20.82 13.13Q19.86 13.13 19.35 12.59Q18.83 12.06 18.83 11.05L18.83 11.05L18.83 6.09L17.86 6.09Q17.73 6.09 17.64 6.01Q17.55 5.94 17.55 5.78L17.55 5.78L17.55 5.21L18.88 5.04L19.21 2.54Q19.23 2.42 19.32 2.34Q19.40 2.26 19.54 2.26L19.54 2.26L20.26 2.26L20.26 5.06L22.60 5.06L22.60 6.09L20.26 6.09L20.26 10.95Q20.26 11.46 20.50 11.71Q20.75 11.96 21.14 11.96L21.14 11.96Q21.37 11.96 21.53 11.90Q21.70 11.84 21.82 11.77Q21.94 11.70 22.02 11.64Q22.10 11.58 22.17 11.58L22.17 11.58Q22.28 11.58 22.37 11.71L22.37 11.71L22.78 12.39Q22.42 12.74 21.90 12.93Q21.38 13.13 20.82 13.13ZM25.33 5.29L25.42 6.52Q25.81 5.69 26.37 5.22Q26.93 4.75 27.74 4.75L27.74 4.75Q27.99 4.75 28.23 4.81Q28.46 4.86 28.65 4.98L28.65 4.98L28.54 6.05Q28.50 6.25 28.30 6.25L28.30 6.25Q28.19 6.25 27.98 6.20Q27.76 6.15 27.49 6.15L27.49 6.15Q27.10 6.15 26.80 6.26Q26.50 6.38 26.27 6.60Q26.03 6.82 25.84 7.14Q25.66 7.46 25.50 7.88L25.50 7.88L25.50 13L24.07 13L24.07 4.90L24.89 4.90Q25.12 4.90 25.21 4.98Q25.30 5.07 25.33 5.29L25.33 5.29ZM33.31 4.77L33.31 4.77Q34.20 4.77 34.91 5.06Q35.62 5.36 36.13 5.90Q36.63 6.45 36.90 7.22Q37.17 7.99 37.17 8.94L37.17 8.94Q37.17 9.90 36.90 10.67Q36.63 11.44 36.13 11.98Q35.62 12.53 34.91 12.82Q34.20 13.11 33.31 13.11L33.31 13.11Q32.42 13.11 31.70 12.82Q30.98 12.53 30.48 11.98Q29.98 11.44 29.71 10.67Q29.44 9.90 29.44 8.94L29.44 8.94Q29.44 7.99 29.71 7.22Q29.98 6.45 30.48 5.90Q30.98 5.36 31.70 5.06Q32.42 4.77 33.31 4.77ZM33.31 12L33.31 12Q34.51 12 35.10 11.20Q35.70 10.39 35.70 8.95L35.70 8.95Q35.70 7.50 35.10 6.70Q34.51 5.89 33.31 5.89L33.31 5.89Q32.70 5.89 32.25 6.10Q31.80 6.30 31.50 6.70Q31.20 7.09 31.05 7.66Q30.90 8.23 30.90 8.95L30.90 8.95Q30.90 10.39 31.50 11.20Q32.10 12 33.31 12ZM44.80 4.90L45.91 4.90L42.61 13L41.33 13L38.02 4.90L39.18 4.90Q39.36 4.90 39.47 4.98Q39.58 5.07 39.62 5.19L39.62 5.19L41.68 10.41Q41.78 10.70 41.85 10.98Q41.92 11.26 41.98 11.54L41.98 11.54Q42.05 11.26 42.12 10.98Q42.19 10.70 42.30 10.41L42.30 10.41L44.38 5.19Q44.42 5.06 44.54 4.98Q44.65 4.90 44.80 4.90L44.80 4.90ZM48.22 8.06L52.65 8.06Q52.65 7.57 52.51 7.16Q52.37 6.74 52.10 6.44Q51.83 6.14 51.45 5.98Q51.06 5.82 50.58 5.82L50.58 5.82Q49.55 5.82 48.96 6.41Q48.36 7.01 48.22 8.06L48.22 8.06ZM53.40 11.34L53.80 11.86Q53.54 12.18 53.17 12.42Q52.80 12.66 52.38 12.81Q51.96 12.96 51.51 13.04Q51.06 13.11 50.62 13.11L50.62 13.11Q49.78 13.11 49.08 12.83Q48.37 12.54 47.85 12.00Q47.34 11.45 47.05 10.64Q46.76 9.83 46.76 8.78L46.76 8.78Q46.76 7.94 47.02 7.20Q47.28 6.46 47.77 5.92Q48.26 5.38 48.96 5.08Q49.66 4.77 50.54 4.77L50.54 4.77Q51.27 4.77 51.89 5.01Q52.51 5.26 52.96 5.72Q53.42 6.18 53.67 6.85Q53.93 7.53 53.93 8.39L53.93 8.39Q53.93 8.73 53.86 8.84Q53.78 8.95 53.58 8.95L53.58 8.95L48.17 8.95Q48.19 9.72 48.38 10.29Q48.57 10.86 48.90 11.24Q49.24 11.62 49.70 11.80Q50.17 11.99 50.74 11.99L50.74 11.99Q51.28 11.99 51.67 11.87Q52.06 11.74 52.34 11.60Q52.62 11.46 52.80 11.33Q52.99 11.21 53.13 11.21L53.13 11.21Q53.30 11.21 53.40 11.34L53.40 11.34ZM56.93 5.29L57.02 6.52Q57.41 5.69 57.97 5.22Q58.53 4.75 59.34 4.75L59.34 4.75Q59.59 4.75 59.83 4.81Q60.06 4.86 60.25 4.98L60.25 4.98L60.14 6.05Q60.10 6.25 59.90 6.25L59.90 6.25Q59.79 6.25 59.58 6.20Q59.36 6.15 59.09 6.15L59.09 6.15Q58.70 6.15 58.40 6.26Q58.10 6.38 57.87 6.60Q57.63 6.82 57.44 7.14Q57.26 7.46 57.10 7.88L57.10 7.88L57.10 13L55.67 13L55.67 4.90L56.49 4.90Q56.72 4.90 56.81 4.98Q56.90 5.07 56.93 5.29L56.93 5.29ZM63.98 13.13L63.98 13.13Q63.02 13.13 62.51 12.59Q61.99 12.06 61.99 11.05L61.99 11.05L61.99 6.09L61.02 6.09Q60.89 6.09 60.80 6.01Q60.71 5.94 60.71 5.78L60.71 5.78L60.71 5.21L62.04 5.04L62.37 2.54Q62.39 2.42 62.48 2.34Q62.56 2.26 62.70 2.26L62.70 2.26L63.42 2.26L63.42 5.06L65.76 5.06L65.76 6.09L63.42 6.09L63.42 10.95Q63.42 11.46 63.66 11.71Q63.91 11.96 64.30 11.96L64.30 11.96Q64.53 11.96 64.69 11.90Q64.86 11.84 64.98 11.77Q65.10 11.70 65.18 11.64Q65.26 11.58 65.33 11.58L65.33 11.58Q65.44 11.58 65.53 11.71L65.53 11.71L65.94 12.39Q65.58 12.74 65.06 12.93Q64.54 13.13 63.98 13.13ZM68.22 8.06L72.66 8.06Q72.66 7.57 72.52 7.16Q72.38 6.74 72.11 6.44Q71.84 6.14 71.46 5.98Q71.07 5.82 70.58 5.82L70.58 5.82Q69.56 5.82 68.96 6.41Q68.37 7.01 68.22 8.06L68.22 8.06ZM73.41 11.34L73.81 11.86Q73.54 12.18 73.18 12.42Q72.81 12.66 72.39 12.81Q71.97 12.96 71.52 13.04Q71.07 13.11 70.63 13.11L70.63 13.11Q69.79 13.11 69.08 12.83Q68.38 12.54 67.86 12.00Q67.34 11.45 67.06 10.64Q66.77 9.83 66.77 8.78L66.77 8.78Q66.77 7.94 67.03 7.20Q67.29 6.46 67.78 5.92Q68.26 5.38 68.97 5.08Q69.67 4.77 70.55 4.77L70.55 4.77Q71.28 4.77 71.90 5.01Q72.52 5.26 72.97 5.72Q73.42 6.18 73.68 6.85Q73.94 7.53 73.94 8.39L73.94 8.39Q73.94 8.73 73.86 8.84Q73.79 8.95 73.59 8.95L73.59 8.95L68.18 8.95Q68.20 9.72 68.39 10.29Q68.58 10.86 68.91 11.24Q69.25 11.62 69.71 11.80Q70.18 11.99 70.75 11.99L70.75 11.99Q71.29 11.99 71.68 11.87Q72.06 11.74 72.34 11.60Q72.62 11.46 72.81 11.33Q73 11.21 73.14 11.21L73.14 11.21Q73.31 11.21 73.41 11.34L73.41 11.34ZM80.96 10.74L80.96 6.82Q80.56 6.29 80.10 6.08Q79.63 5.86 79.06 5.86L79.06 5.86Q77.93 5.86 77.32 6.67Q76.71 7.48 76.71 8.98L76.71 8.98Q76.71 9.77 76.85 10.33Q76.98 10.90 77.25 11.26Q77.51 11.62 77.90 11.79Q78.28 11.96 78.77 11.96L78.77 11.96Q79.47 11.96 80.00 11.64Q80.52 11.32 80.96 10.74L80.96 10.74ZM80.96 1.22L82.38 1.22L82.38 13L81.54 13Q81.23 13 81.15 12.70L81.15 12.70L81.02 11.72Q80.50 12.34 79.84 12.73Q79.18 13.11 78.30 13.11L78.30 13.11Q77.61 13.11 77.04 12.84Q76.47 12.58 76.07 12.06Q75.67 11.54 75.46 10.76Q75.24 9.98 75.24 8.98L75.24 8.98Q75.24 8.08 75.48 7.31Q75.72 6.54 76.17 5.97Q76.62 5.40 77.27 5.08Q77.92 4.75 78.74 4.75L78.74 4.75Q79.48 4.75 80.01 5.00Q80.54 5.26 80.96 5.70L80.96 5.70L80.96 1.22ZM94.02 10.74L94.02 6.82Q93.63 6.30 93.16 6.08Q92.69 5.86 92.11 5.86L92.11 5.86Q90.98 5.86 90.38 6.67Q89.77 7.48 89.77 8.98L89.77 8.98Q89.77 9.77 89.90 10.33Q90.04 10.90 90.30 11.26Q90.57 11.62 90.95 11.79Q91.34 11.96 91.82 11.96L91.82 11.96Q92.53 11.96 93.05 11.64Q93.58 11.32 94.02 10.74L94.02 10.74ZM94.59 4.90L95.44 4.90L95.44 15.74L94.02 15.74L94.02 11.79Q93.51 12.38 92.86 12.75Q92.20 13.11 91.36 13.11L91.36 13.11Q90.66 13.11 90.10 12.84Q89.53 12.58 89.13 12.06Q88.73 11.54 88.51 10.76Q88.30 9.98 88.30 8.98L88.30 8.98Q88.30 8.08 88.54 7.31Q88.78 6.54 89.22 5.97Q89.67 5.40 90.32 5.08Q90.98 4.75 91.79 4.75L91.79 4.75Q92.58 4.75 93.14 5.03Q93.69 5.31 94.11 5.82L94.11 5.82L94.21 5.19Q94.29 4.90 94.59 4.90L94.59 4.90ZM102.94 4.90L104.36 4.90L104.36 13L103.51 13Q103.21 13 103.13 12.70L103.13 12.70L103.02 11.83Q102.49 12.42 101.83 12.77Q101.18 13.13 100.33 13.13L100.33 13.13Q99.66 13.13 99.16 12.91Q98.65 12.69 98.30 12.29Q97.96 11.89 97.79 11.32Q97.62 10.75 97.62 10.06L97.62 10.06L97.62 4.90L99.04 4.90L99.04 10.06Q99.04 10.98 99.46 11.49Q99.88 11.99 100.74 11.99L100.74 11.99Q101.38 11.99 101.92 11.69Q102.47 11.39 102.94 10.86L102.94 10.86L102.94 4.90ZM107.61 8.06L112.04 8.06Q112.04 7.57 111.90 7.16Q111.76 6.74 111.49 6.44Q111.22 6.14 110.84 5.98Q110.46 5.82 109.97 5.82L109.97 5.82Q108.94 5.82 108.35 6.41Q107.75 7.01 107.61 8.06L107.61 8.06ZM112.79 11.34L113.19 11.86Q112.93 12.18 112.56 12.42Q112.19 12.66 111.77 12.81Q111.35 12.96 110.90 13.04Q110.46 13.11 110.02 13.11L110.02 13.11Q109.18 13.11 108.47 12.83Q107.76 12.54 107.24 12.00Q106.73 11.45 106.44 10.64Q106.15 9.83 106.15 8.78L106.15 8.78Q106.15 7.94 106.41 7.20Q106.67 6.46 107.16 5.92Q107.65 5.38 108.35 5.08Q109.06 4.77 109.94 4.77L109.94 4.77Q110.66 4.77 111.28 5.01Q111.90 5.26 112.36 5.72Q112.81 6.18 113.06 6.85Q113.32 7.53 113.32 8.39L113.32 8.39Q113.32 8.73 113.25 8.84Q113.18 8.95 112.98 8.95L112.98 8.95L107.56 8.95Q107.58 9.72 107.77 10.29Q107.96 10.86 108.30 11.24Q108.63 11.62 109.10 11.80Q109.56 11.99 110.14 11.99L110.14 11.99Q110.67 11.99 111.06 11.87Q111.45 11.74 111.73 11.60Q112.01 11.46 112.20 11.33Q112.38 11.21 112.52 11.21L112.52 11.21Q112.70 11.21 112.79 11.34L112.79 11.34ZM120.10 5.71L119.78 6.23Q119.69 6.41 119.49 6.41L119.49 6.41Q119.37 6.41 119.22 6.32Q119.06 6.23 118.84 6.12Q118.62 6.02 118.32 5.92Q118.02 5.83 117.60 5.83L117.60 5.83Q117.24 5.83 116.95 5.92Q116.66 6.02 116.46 6.18Q116.26 6.34 116.15 6.55Q116.04 6.76 116.04 7.01L116.04 7.01Q116.04 7.32 116.22 7.53Q116.40 7.74 116.70 7.89Q116.99 8.04 117.37 8.16Q117.74 8.27 118.14 8.40Q118.54 8.54 118.91 8.70Q119.29 8.86 119.58 9.10Q119.88 9.34 120.06 9.68Q120.24 10.03 120.24 10.52L120.24 10.52Q120.24 11.08 120.04 11.56Q119.84 12.03 119.45 12.38Q119.06 12.73 118.49 12.93Q117.92 13.13 117.18 13.13L117.18 13.13Q116.33 13.13 115.64 12.85Q114.95 12.58 114.47 12.14L114.47 12.14L114.81 11.60Q114.87 11.50 114.96 11.44Q115.05 11.38 115.18 11.38L115.18 11.38Q115.33 11.38 115.49 11.50Q115.65 11.61 115.88 11.74Q116.10 11.88 116.43 11.99Q116.76 12.10 117.25 12.10L117.25 12.10Q117.66 12.10 117.98 12.00Q118.29 11.89 118.50 11.70Q118.70 11.52 118.80 11.28Q118.90 11.04 118.90 10.77L118.90 10.77Q118.90 10.43 118.72 10.21Q118.54 9.99 118.25 9.84Q117.95 9.68 117.57 9.56Q117.19 9.45 116.80 9.32Q116.40 9.19 116.02 9.03Q115.64 8.86 115.34 8.62Q115.05 8.37 114.87 8.00Q114.69 7.64 114.69 7.12L114.69 7.12Q114.69 6.66 114.88 6.23Q115.07 5.80 115.44 5.48Q115.81 5.15 116.34 4.96Q116.88 4.77 117.57 4.77L117.57 4.77Q118.37 4.77 119.00 5.02Q119.64 5.27 120.10 5.71L120.10 5.71ZM124.48 13.13L124.48 13.13Q123.52 13.13 123.00 12.59Q122.49 12.06 122.49 11.05L122.49 11.05L122.49 6.09L121.51 6.09Q121.38 6.09 121.30 6.01Q121.21 5.94 121.21 5.78L121.21 5.78L121.21 5.21L122.54 5.04L122.86 2.54Q122.89 2.42 122.97 2.34Q123.06 2.26 123.19 2.26L123.19 2.26L123.91 2.26L123.91 5.06L126.26 5.06L126.26 6.09L123.91 6.09L123.91 10.95Q123.91 11.46 124.16 11.71Q124.41 11.96 124.80 11.96L124.80 11.96Q125.02 11.96 125.19 11.90Q125.35 11.84 125.47 11.77Q125.59 11.70 125.68 11.64Q125.76 11.58 125.82 11.58L125.82 11.58Q125.94 11.58 126.02 11.71L126.02 11.71L126.44 12.39Q126.07 12.74 125.55 12.93Q125.03 13.13 124.48 13.13ZM127.81 4.90L129.23 4.90L129.23 13L127.81 13L127.81 4.90ZM129.54 2.35L129.54 2.35Q129.54 2.56 129.45 2.74Q129.37 2.92 129.23 3.06Q129.09 3.20 128.90 3.28Q128.71 3.36 128.50 3.36L128.50 3.36Q128.30 3.36 128.12 3.28Q127.94 3.20 127.80 3.06Q127.66 2.92 127.58 2.74Q127.50 2.56 127.50 2.35L127.50 2.35Q127.50 2.14 127.58 1.96Q127.66 1.77 127.80 1.63Q127.94 1.49 128.12 1.41Q128.30 1.33 128.50 1.33L128.50 1.33Q128.71 1.33 128.90 1.41Q129.09 1.49 129.23 1.63Q129.37 1.77 129.45 1.96Q129.54 2.14 129.54 2.35ZM134.98 4.77L134.98 4.77Q135.87 4.77 136.58 5.06Q137.30 5.36 137.80 5.90Q138.30 6.45 138.57 7.22Q138.84 7.99 138.84 8.94L138.84 8.94Q138.84 9.90 138.57 10.67Q138.30 11.44 137.80 11.98Q137.30 12.53 136.58 12.82Q135.87 13.11 134.98 13.11L134.98 13.11Q134.09 13.11 133.37 12.82Q132.66 12.53 132.15 11.98Q131.65 11.44 131.38 10.67Q131.11 9.90 131.11 8.94L131.11 8.94Q131.11 7.99 131.38 7.22Q131.65 6.45 132.15 5.90Q132.66 5.36 133.37 5.06Q134.09 4.77 134.98 4.77ZM134.98 12L134.98 12Q136.18 12 136.78 11.20Q137.37 10.39 137.37 8.95L137.37 8.95Q137.37 7.50 136.78 6.70Q136.18 5.89 134.98 5.89L134.98 5.89Q134.38 5.89 133.92 6.10Q133.47 6.30 133.17 6.70Q132.87 7.09 132.72 7.66Q132.58 8.23 132.58 8.95L132.58 8.95Q132.58 10.39 133.17 11.20Q133.77 12 134.98 12ZM141.87 5.19L141.98 6.07Q142.25 5.78 142.54 5.54Q142.84 5.30 143.17 5.12Q143.50 4.95 143.88 4.86Q144.25 4.77 144.68 4.77L144.68 4.77Q145.34 4.77 145.85 4.99Q146.36 5.21 146.70 5.61Q147.04 6.02 147.22 6.58Q147.39 7.15 147.39 7.84L147.39 7.84L147.39 13L145.96 13L145.96 7.84Q145.96 6.92 145.54 6.41Q145.12 5.90 144.26 5.90L144.26 5.90Q143.63 5.90 143.08 6.21Q142.54 6.51 142.07 7.03L142.07 7.03L142.07 13L140.64 13L140.64 4.90L141.50 4.90Q141.80 4.90 141.87 5.19L141.87 5.19ZM154.61 5.71L154.29 6.23Q154.19 6.41 153.99 6.41L153.99 6.41Q153.87 6.41 153.72 6.32Q153.57 6.23 153.35 6.12Q153.13 6.02 152.82 5.92Q152.52 5.83 152.10 5.83L152.10 5.83Q151.74 5.83 151.46 5.92Q151.17 6.02 150.96 6.18Q150.76 6.34 150.65 6.55Q150.54 6.76 150.54 7.01L150.54 7.01Q150.54 7.32 150.72 7.53Q150.90 7.74 151.20 7.89Q151.50 8.04 151.87 8.16Q152.25 8.27 152.64 8.40Q153.04 8.54 153.42 8.70Q153.79 8.86 154.09 9.10Q154.38 9.34 154.56 9.68Q154.74 10.03 154.74 10.52L154.74 10.52Q154.74 11.08 154.54 11.56Q154.34 12.03 153.95 12.38Q153.56 12.73 152.99 12.93Q152.42 13.13 151.68 13.13L151.68 13.13Q150.83 13.13 150.14 12.85Q149.46 12.58 148.98 12.14L148.98 12.14L149.31 11.60Q149.38 11.50 149.46 11.44Q149.55 11.38 149.69 11.38L149.69 11.38Q149.83 11.38 149.99 11.50Q150.15 11.61 150.38 11.74Q150.61 11.88 150.94 11.99Q151.26 12.10 151.75 12.10L151.75 12.10Q152.17 12.10 152.48 12.00Q152.79 11.89 153 11.70Q153.21 11.52 153.31 11.28Q153.41 11.04 153.41 10.77L153.41 10.77Q153.41 10.43 153.23 10.21Q153.05 9.99 152.75 9.84Q152.46 9.68 152.08 9.56Q151.70 9.45 151.30 9.32Q150.90 9.19 150.52 9.03Q150.14 8.86 149.85 8.62Q149.55 8.37 149.37 8.00Q149.19 7.64 149.19 7.12L149.19 7.12Q149.19 6.66 149.38 6.23Q149.58 5.80 149.94 5.48Q150.31 5.15 150.85 4.96Q151.38 4.77 152.07 4.77L152.07 4.77Q152.87 4.77 153.51 5.02Q154.14 5.27 154.61 5.71L154.61 5.71ZM162.55 13L161.12 13L161.12 6.11L160.22 6.01Q160.06 5.97 159.95 5.88Q159.84 5.80 159.84 5.64L159.84 5.64L159.84 5.06L161.12 5.06L161.12 4.27Q161.12 3.58 161.32 3.04Q161.51 2.50 161.88 2.12Q162.24 1.75 162.75 1.56Q163.26 1.37 163.90 1.37L163.90 1.37Q164.45 1.37 164.90 1.53L164.90 1.53L164.87 2.24Q164.86 2.43 164.66 2.45Q164.46 2.46 164.14 2.46L164.14 2.46Q163.77 2.46 163.47 2.56Q163.17 2.66 162.95 2.87Q162.74 3.09 162.62 3.44Q162.50 3.79 162.50 4.31L162.50 4.31L162.50 5.06L164.84 5.06L164.84 6.09L162.55 6.09L162.55 13ZM169.62 4.77L169.62 4.77Q170.50 4.77 171.22 5.06Q171.93 5.36 172.43 5.90Q172.94 6.45 173.20 7.22Q173.47 7.99 173.47 8.94L173.47 8.94Q173.47 9.90 173.20 10.67Q172.94 11.44 172.43 11.98Q171.93 12.53 171.22 12.82Q170.50 13.11 169.62 13.11L169.62 13.11Q168.72 13.11 168.00 12.82Q167.29 12.53 166.78 11.98Q166.28 11.44 166.01 10.67Q165.74 9.90 165.74 8.94L165.74 8.94Q165.74 7.99 166.01 7.22Q166.28 6.45 166.78 5.90Q167.29 5.36 168.00 5.06Q168.72 4.77 169.62 4.77ZM169.62 12L169.62 12Q170.82 12 171.41 11.20Q172 10.39 172 8.95L172 8.95Q172 7.50 171.41 6.70Q170.82 5.89 169.62 5.89L169.62 5.89Q169.01 5.89 168.56 6.10Q168.10 6.30 167.80 6.70Q167.50 7.09 167.36 7.66Q167.21 8.23 167.21 8.95L167.21 8.95Q167.21 10.39 167.80 11.20Q168.40 12 169.62 12ZM176.53 5.29L176.62 6.52Q177.01 5.69 177.57 5.22Q178.13 4.75 178.94 4.75L178.94 4.75Q179.19 4.75 179.43 4.81Q179.66 4.86 179.85 4.98L179.85 4.98L179.74 6.05Q179.70 6.25 179.50 6.25L179.50 6.25Q179.39 6.25 179.18 6.20Q178.96 6.15 178.69 6.15L178.69 6.15Q178.30 6.15 178.00 6.26Q177.70 6.38 177.47 6.60Q177.23 6.82 177.04 7.14Q176.86 7.46 176.70 7.88L176.70 7.88L176.70 13L175.27 13L175.27 4.90L176.09 4.90Q176.32 4.90 176.41 4.98Q176.50 5.07 176.53 5.29L176.53 5.29ZM185.27 4.90L186.70 4.90L186.70 13L185.27 13L185.27 4.90ZM187.00 2.35L187.00 2.35Q187.00 2.56 186.92 2.74Q186.83 2.92 186.69 3.06Q186.55 3.20 186.36 3.28Q186.18 3.36 185.97 3.36L185.97 3.36Q185.76 3.36 185.58 3.28Q185.40 3.20 185.26 3.06Q185.13 2.92 185.05 2.74Q184.97 2.56 184.97 2.35L184.97 2.35Q184.97 2.14 185.05 1.96Q185.13 1.77 185.26 1.63Q185.40 1.49 185.58 1.41Q185.76 1.33 185.97 1.33L185.97 1.33Q186.18 1.33 186.36 1.41Q186.55 1.49 186.69 1.63Q186.83 1.77 186.92 1.96Q187.00 2.14 187.00 2.35ZM190.26 5.19L190.38 6.07Q190.64 5.78 190.94 5.54Q191.23 5.30 191.56 5.12Q191.90 4.95 192.27 4.86Q192.64 4.77 193.07 4.77L193.07 4.77Q193.74 4.77 194.24 4.99Q194.75 5.21 195.09 5.61Q195.43 6.02 195.61 6.58Q195.78 7.15 195.78 7.84L195.78 7.84L195.78 13L194.35 13L194.35 7.84Q194.35 6.92 193.93 6.41Q193.51 5.90 192.66 5.90L192.66 5.90Q192.02 5.90 191.48 6.21Q190.93 6.51 190.46 7.03L190.46 7.03L190.46 13L189.03 13L189.03 4.90L189.89 4.90Q190.19 4.90 190.26 5.19L190.26 5.19ZM200.45 13.13L200.45 13.13Q199.49 13.13 198.97 12.59Q198.46 12.06 198.46 11.05L198.46 11.05L198.46 6.09L197.48 6.09Q197.35 6.09 197.26 6.01Q197.18 5.94 197.18 5.78L197.18 5.78L197.18 5.21L198.50 5.04L198.83 2.54Q198.86 2.42 198.94 2.34Q199.02 2.26 199.16 2.26L199.16 2.26L199.88 2.26L199.88 5.06L202.22 5.06L202.22 6.09L199.88 6.09L199.88 10.95Q199.88 11.46 200.13 11.71Q200.38 11.96 200.77 11.96L200.77 11.96Q200.99 11.96 201.16 11.90Q201.32 11.84 201.44 11.77Q201.56 11.70 201.64 11.64Q201.73 11.58 201.79 11.58L201.79 11.58Q201.90 11.58 201.99 11.71L201.99 11.71L202.41 12.39Q202.04 12.74 201.52 12.93Q201.00 13.13 200.45 13.13ZM204.95 5.29L205.05 6.52Q205.43 5.69 205.99 5.22Q206.55 4.75 207.36 4.75L207.36 4.75Q207.62 4.75 207.85 4.81Q208.09 4.86 208.27 4.98L208.27 4.98L208.17 6.05Q208.12 6.25 207.93 6.25L207.93 6.25Q207.82 6.25 207.60 6.20Q207.38 6.15 207.11 6.15L207.11 6.15Q206.73 6.15 206.43 6.26Q206.13 6.38 205.89 6.60Q205.66 6.82 205.47 7.14Q205.28 7.46 205.13 7.88L205.13 7.88L205.13 13L203.70 13L203.70 4.90L204.51 4.90Q204.74 4.90 204.83 4.98Q204.92 5.07 204.95 5.29L204.95 5.29ZM212.94 4.77L212.94 4.77Q213.82 4.77 214.54 5.06Q215.25 5.36 215.75 5.90Q216.26 6.45 216.52 7.22Q216.79 7.99 216.79 8.94L216.79 8.94Q216.79 9.90 216.52 10.67Q216.26 11.44 215.75 11.98Q215.25 12.53 214.54 12.82Q213.82 13.11 212.94 13.11L212.94 13.11Q212.04 13.11 211.32 12.82Q210.61 12.53 210.10 11.98Q209.60 11.44 209.33 10.67Q209.06 9.90 209.06 8.94L209.06 8.94Q209.06 7.99 209.33 7.22Q209.60 6.45 210.10 5.90Q210.61 5.36 211.32 5.06Q212.04 4.77 212.94 4.77ZM212.94 12L212.94 12Q214.14 12 214.73 11.20Q215.32 10.39 215.32 8.95L215.32 8.95Q215.32 7.50 214.73 6.70Q214.14 5.89 212.94 5.89L212.94 5.89Q212.33 5.89 211.88 6.10Q211.42 6.30 211.12 6.70Q210.82 7.09 210.68 7.66Q210.53 8.23 210.53 8.95L210.53 8.95Q210.53 10.39 211.12 11.20Q211.72 12 212.94 12ZM224.42 4.90L225.54 4.90L222.23 13L220.95 13L217.65 4.90L218.81 4.90Q218.98 4.90 219.10 4.98Q219.21 5.07 219.25 5.19L219.25 5.19L221.30 10.41Q221.40 10.70 221.47 10.98Q221.54 11.26 221.61 11.54L221.61 11.54Q221.67 11.26 221.74 10.98Q221.82 10.70 221.92 10.41L221.92 10.41L224.00 5.19Q224.05 5.06 224.16 4.98Q224.27 4.90 224.42 4.90L224.42 4.90ZM227.84 8.06L232.27 8.06Q232.27 7.57 232.13 7.16Q231.99 6.74 231.72 6.44Q231.46 6.14 231.07 5.98Q230.69 5.82 230.20 5.82L230.20 5.82Q229.18 5.82 228.58 6.41Q227.98 7.01 227.84 8.06L227.84 8.06ZM233.02 11.34L233.42 11.86Q233.16 12.18 232.79 12.42Q232.42 12.66 232.00 12.81Q231.58 12.96 231.14 13.04Q230.69 13.11 230.25 13.11L230.25 13.11Q229.41 13.11 228.70 12.83Q227.99 12.54 227.48 12.00Q226.96 11.45 226.67 10.64Q226.38 9.83 226.38 8.78L226.38 8.78Q226.38 7.94 226.64 7.20Q226.90 6.46 227.39 5.92Q227.88 5.38 228.58 5.08Q229.29 4.77 230.17 4.77L230.17 4.77Q230.90 4.77 231.52 5.01Q232.14 5.26 232.59 5.72Q233.04 6.18 233.30 6.85Q233.55 7.53 233.55 8.39L233.55 8.39Q233.55 8.73 233.48 8.84Q233.41 8.95 233.21 8.95L233.21 8.95L227.79 8.95Q227.82 9.72 228.00 10.29Q228.19 10.86 228.53 11.24Q228.86 11.62 229.33 11.80Q229.79 11.99 230.37 11.99L230.37 11.99Q230.90 11.99 231.29 11.87Q231.68 11.74 231.96 11.60Q232.24 11.46 232.43 11.33Q232.62 11.21 232.75 11.21L232.75 11.21Q232.93 11.21 233.02 11.34L233.02 11.34ZM236.55 5.29L236.65 6.52Q237.03 5.69 237.59 5.22Q238.15 4.75 238.96 4.75L238.96 4.75Q239.22 4.75 239.45 4.81Q239.69 4.86 239.87 4.98L239.87 4.98L239.77 6.05Q239.72 6.25 239.53 6.25L239.53 6.25Q239.42 6.25 239.20 6.20Q238.98 6.15 238.71 6.15L238.71 6.15Q238.33 6.15 238.03 6.26Q237.73 6.38 237.49 6.60Q237.26 6.82 237.07 7.14Q236.88 7.46 236.73 7.88L236.73 7.88L236.73 13L235.30 13L235.30 4.90L236.11 4.90Q236.34 4.90 236.43 4.98Q236.52 5.07 236.55 5.29L236.55 5.29ZM243.61 13.13L243.61 13.13Q242.65 13.13 242.13 12.59Q241.62 12.06 241.62 11.05L241.62 11.05L241.62 6.09L240.64 6.09Q240.51 6.09 240.42 6.01Q240.34 5.94 240.34 5.78L240.34 5.78L240.34 5.21L241.66 5.04L241.99 2.54Q242.02 2.42 242.10 2.34Q242.18 2.26 242.32 2.26L242.32 2.26L243.04 2.26L243.04 5.06L245.38 5.06L245.38 6.09L243.04 6.09L243.04 10.95Q243.04 11.46 243.29 11.71Q243.54 11.96 243.93 11.96L243.93 11.96Q244.15 11.96 244.32 11.90Q244.48 11.84 244.60 11.77Q244.72 11.70 244.80 11.64Q244.89 11.58 244.95 11.58L244.95 11.58Q245.06 11.58 245.15 11.71L245.15 11.71L245.57 12.39Q245.20 12.74 244.68 12.93Q244.16 13.13 243.61 13.13ZM247.85 8.06L252.28 8.06Q252.28 7.57 252.14 7.16Q252.00 6.74 251.73 6.44Q251.46 6.14 251.08 5.98Q250.70 5.82 250.21 5.82L250.21 5.82Q249.18 5.82 248.59 6.41Q247.99 7.01 247.85 8.06L247.85 8.06ZM253.03 11.34L253.43 11.86Q253.17 12.18 252.80 12.42Q252.43 12.66 252.01 12.81Q251.59 12.96 251.14 13.04Q250.70 13.11 250.26 13.11L250.26 13.11Q249.42 13.11 248.71 12.83Q248.00 12.54 247.48 12.00Q246.97 11.45 246.68 10.64Q246.39 9.83 246.39 8.78L246.39 8.78Q246.39 7.94 246.65 7.20Q246.91 6.46 247.40 5.92Q247.89 5.38 248.59 5.08Q249.30 4.77 250.18 4.77L250.18 4.77Q250.90 4.77 251.52 5.01Q252.14 5.26 252.60 5.72Q253.05 6.18 253.30 6.85Q253.56 7.53 253.56 8.39L253.56 8.39Q253.56 8.73 253.49 8.84Q253.42 8.95 253.22 8.95L253.22 8.95L247.80 8.95Q247.82 9.72 248.01 10.29Q248.20 10.86 248.54 11.24Q248.87 11.62 249.34 11.80Q249.80 11.99 250.38 11.99L250.38 11.99Q250.91 11.99 251.30 11.87Q251.69 11.74 251.97 11.60Q252.25 11.46 252.44 11.33Q252.62 11.21 252.76 11.21L252.76 11.21Q252.94 11.21 253.03 11.34L253.03 11.34ZM256.56 5.29L256.66 6.52Q257.04 5.69 257.60 5.22Q258.16 4.75 258.97 4.75L258.97 4.75Q259.22 4.75 259.46 4.81Q259.70 4.86 259.88 4.98L259.88 4.98L259.78 6.05Q259.73 6.25 259.54 6.25L259.54 6.25Q259.42 6.25 259.21 6.20Q258.99 6.15 258.72 6.15L258.72 6.15Q258.34 6.15 258.04 6.26Q257.74 6.38 257.50 6.60Q257.26 6.82 257.08 7.14Q256.89 7.46 256.74 7.88L256.74 7.88L256.74 13L255.30 13L255.30 4.90L256.12 4.90Q256.35 4.90 256.44 4.98Q256.53 5.07 256.56 5.29L256.56 5.29ZM266.17 5.71L265.85 6.23Q265.75 6.41 265.55 6.41L265.55 6.41Q265.43 6.41 265.28 6.32Q265.13 6.23 264.91 6.12Q264.69 6.02 264.38 5.92Q264.08 5.83 263.66 5.83L263.66 5.83Q263.30 5.83 263.02 5.92Q262.73 6.02 262.52 6.18Q262.32 6.34 262.21 6.55Q262.10 6.76 262.10 7.01L262.10 7.01Q262.10 7.32 262.28 7.53Q262.46 7.74 262.76 7.89Q263.06 8.04 263.43 8.16Q263.81 8.27 264.20 8.40Q264.60 8.54 264.98 8.70Q265.35 8.86 265.65 9.10Q265.94 9.34 266.12 9.68Q266.30 10.03 266.30 10.52L266.30 10.52Q266.30 11.08 266.10 11.56Q265.90 12.03 265.51 12.38Q265.12 12.73 264.55 12.93Q263.98 13.13 263.24 13.13L263.24 13.13Q262.39 13.13 261.70 12.85Q261.02 12.58 260.54 12.14L260.54 12.14L260.87 11.60Q260.94 11.50 261.02 11.44Q261.11 11.38 261.25 11.38L261.25 11.38Q261.39 11.38 261.55 11.50Q261.71 11.61 261.94 11.74Q262.17 11.88 262.50 11.99Q262.82 12.10 263.31 12.10L263.31 12.10Q263.73 12.10 264.04 12.00Q264.35 11.89 264.56 11.70Q264.77 11.52 264.87 11.28Q264.97 11.04 264.97 10.77L264.97 10.77Q264.97 10.43 264.79 10.21Q264.61 9.99 264.31 9.84Q264.02 9.68 263.64 9.56Q263.26 9.45 262.86 9.32Q262.46 9.19 262.08 9.03Q261.70 8.86 261.41 8.62Q261.11 8.37 260.93 8.00Q260.75 7.64 260.75 7.12L260.75 7.12Q260.75 6.66 260.94 6.23Q261.14 5.80 261.50 5.48Q261.87 5.15 262.41 4.96Q262.94 4.77 263.63 4.77L263.63 4.77Q264.43 4.77 265.07 5.02Q265.70 5.27 266.17 5.71L266.17 5.71ZM267.82 12.12L267.82 12.12Q267.82 11.91 267.89 11.73Q267.97 11.54 268.10 11.41Q268.23 11.27 268.42 11.19Q268.60 11.11 268.81 11.11L268.81 11.11Q269.02 11.11 269.20 11.19Q269.38 11.27 269.52 11.41Q269.66 11.54 269.74 11.73Q269.82 11.91 269.82 12.12L269.82 12.12Q269.82 12.34 269.74 12.52Q269.66 12.70 269.52 12.83Q269.38 12.97 269.20 13.04Q269.02 13.12 268.81 13.12L268.81 13.12Q268.60 13.12 268.42 13.04Q268.23 12.97 268.10 12.83Q267.97 12.70 267.89 12.52Q267.82 12.34 267.82 12.12Z"></path></svg></svg>