<svg xmlns="http://www.w3.org/2000/svg" version="1.1" xmlns:xlink="http://www.w3.org/1999/xlink" xmlns:svgjs="http://svgjs.dev/svgjs" width="765" height="625" viewBox="0 0 325.30799560546876 300" class="svg-animations " style="background: rgb(0, 105, 255);"><svg viewBox="0 0 109.0260009765625 139" width="120" height="120" fill="#ffffff" x="102.65399780273438" y="66.94000005722046"><svg width="109" height="134" viewBox="0 0 109 134" xmlns="http://www.w3.org/2000/svg">
	<g clip-path="url(#clip0)">
	<path d="M108.271 15.5108C107.477 14.8831 88.5723 0 54.5 0C20.4277 0 1.52329 14.8831 0.729097 15.5108C0.273411 15.877 0 16.4525 0 17.041V86.7874C0 87.1667 0.104157 87.546 0.32549 87.8598C18.2274 115.324 52.1695 133.045 53.6147 133.778C53.9011 133.922 54.2006 134 54.513 134C54.8255 134 55.1249 133.922 55.4114 133.778C56.8435 133.032 90.7986 115.311 108.701 87.8598C108.909 87.546 109.026 87.1667 109.026 86.7874V17.041C109 16.4525 108.727 15.877 108.271 15.5108ZM54.5 129.815C52.4689 128.703 47.17 125.708 40.4909 121.157V104.875C40.4909 104.352 40.2826 103.855 39.9181 103.488L34.0983 97.6424C45.5816 88.9192 48.0293 74.5723 48.537 69.6549C54.7994 68.7917 62.0253 66.1368 63.3924 58.6299C63.5877 57.5575 62.8846 56.5374 61.817 56.3543C60.7494 56.1581 59.7339 56.8643 59.5516 57.9368C58.5231 63.6258 51.9742 65.4306 46.5971 65.9407C46.506 65.9407 46.4148 65.9537 46.3237 65.9668C42.509 66.2938 39.3582 65.993 39.2801 65.9799C38.8635 65.9407 38.4338 66.0322 38.0693 66.2545C34.0072 68.7002 30.2315 69.3802 26.8594 68.2686C22.2244 66.7384 19.282 62.2003 18.0582 59.9377C21.7818 57.0344 32.9526 48.455 38.9676 45.0023C40.5039 44.113 41.7538 43.276 42.8475 42.5306C47.0658 39.6664 49.852 37.7701 64.6553 37.7701C67.3503 37.7701 69.4725 38.7509 71.1781 40.7911C78.8987 50.0113 74.8626 75.9063 74.4851 78.1688C74.0815 79.3067 73.756 80.4968 73.4826 81.7C73.3524 81.9746 73.2742 82.2885 73.2873 82.6024C70.5792 96.0076 74.7455 112.199 75.8 115.965C65.8791 123.42 57.2341 128.324 54.5 129.815ZM45.1389 36.5669L39.3192 27.5821C45.0999 25.3326 61.6217 19.8528 74.2768 25.1364C80.6173 27.7913 85.2002 32.8526 87.8822 40.1895C87.9213 40.3072 91.8272 51.5676 90.0044 73.5653L78.3128 78.9405C78.5602 77.4888 83.3254 49.1874 74.1726 38.2409C71.7249 35.3113 68.5221 33.8204 64.6553 33.8204C53.7318 33.8204 48.7063 34.8928 45.1389 36.5669ZM105.094 86.212C98.0245 96.8839 88.2858 106.104 79.1721 113.336C77.8571 108.131 74.9928 94.8306 77.0369 83.8579L92.6734 76.6779C93.3114 76.3902 93.741 75.7755 93.8061 75.0693C95.9544 51.3453 91.749 39.3656 91.5668 38.8686C88.4941 30.4462 83.1822 24.6133 75.774 21.5268C58.6663 14.3861 36.5199 24.4825 35.5825 24.9141C35.0618 25.1495 34.6842 25.6073 34.528 26.1565C34.3717 26.7058 34.4629 27.2944 34.7623 27.7652L41.7408 38.5417C41.3893 38.7771 41.0247 39.0256 40.6602 39.2741C39.5665 40.0195 38.4338 40.7781 37.0277 41.5889C29.5284 45.8917 15.0116 57.3352 14.3997 57.819C13.7096 58.3683 13.4623 59.2969 13.8008 60.1077C13.957 60.487 17.6546 69.3279 25.6095 71.9828C29.9451 73.4214 34.6321 72.7414 39.5145 69.9426C40.4519 70.008 42.2876 70.1126 44.54 70.0211C43.863 75.2524 41.0768 88.5922 29.9971 95.746C29.5024 96.073 29.1769 96.5961 29.1118 97.1847C29.0467 97.7732 29.255 98.3617 29.6716 98.7802L36.559 105.699V118.437C25.8309 110.695 12.7592 99.578 3.90588 86.212V18.0349C7.62948 15.3801 25.4273 3.92348 54.5 3.92348C83.4946 3.92348 101.358 15.3801 105.094 18.0349V86.212Z"></path>
	<path d="M48.1986 47.5659C46.7273 47.5659 45.5295 48.7691 45.5295 50.247C45.5295 51.7248 46.7273 52.928 48.1986 52.928C49.6698 52.928 50.8676 51.7248 50.8676 50.247C50.8676 48.7691 49.6698 47.5659 48.1986 47.5659Z"></path>
	</g>
	</svg></svg><svg fill="#ffffff" x="71.868994140625" y="186.94000005722046"><path d="M6.02 14.96L9.70 14.96Q11.02 14.96 12.04 14.61Q13.06 14.26 13.75 13.62Q14.45 12.99 14.80 12.11Q15.15 11.23 15.15 10.18L15.15 10.18Q15.15 7.98 13.80 6.75Q12.45 5.52 9.70 5.52L9.70 5.52L6.02 5.52L6.02 14.96ZM2.93 3.07L9.70 3.07Q11.87 3.07 13.48 3.58Q15.09 4.08 16.14 5.01Q17.20 5.94 17.72 7.25Q18.24 8.56 18.24 10.18L18.24 10.18Q18.24 11.78 17.68 13.10Q17.12 14.43 16.04 15.39Q14.96 16.35 13.37 16.89Q11.78 17.42 9.70 17.42L9.70 17.42L6.02 17.42L6.02 26L2.93 26L2.93 3.07ZM30.26 22.06L30.26 18.70Q28.29 18.77 26.90 19.02Q25.52 19.26 24.65 19.66Q23.78 20.06 23.38 20.61Q22.99 21.15 22.99 21.82L22.99 21.82Q22.99 22.46 23.20 22.93Q23.41 23.39 23.77 23.69Q24.13 23.98 24.62 24.12Q25.10 24.26 25.66 24.26L25.66 24.26Q26.42 24.26 27.04 24.10Q27.66 23.95 28.22 23.66Q28.77 23.38 29.27 22.98Q29.78 22.58 30.26 22.06L30.26 22.06ZM21.57 12.99L21.06 12.08Q22.40 10.78 23.95 10.14Q25.50 9.50 27.39 9.50L27.39 9.50Q28.75 9.50 29.81 9.95Q30.86 10.40 31.58 11.20Q32.30 12 32.67 13.14Q33.04 14.27 33.04 15.63L33.04 15.63L33.04 26L31.78 26Q31.36 26 31.14 25.86Q30.91 25.73 30.78 25.33L30.78 25.33L30.46 23.79Q29.82 24.38 29.22 24.84Q28.61 25.30 27.94 25.61Q27.26 25.92 26.50 26.09Q25.74 26.26 24.82 26.26L24.82 26.26Q23.87 26.26 23.04 25.99Q22.21 25.73 21.59 25.20Q20.98 24.67 20.62 23.86Q20.26 23.06 20.26 21.95L20.26 21.95Q20.26 20.99 20.78 20.10Q21.31 19.22 22.50 18.53Q23.68 17.84 25.58 17.40Q27.49 16.96 30.26 16.90L30.26 16.90L30.26 15.63Q30.26 13.74 29.44 12.78Q28.62 11.81 27.06 11.81L27.06 11.81Q26 11.81 25.29 12.07Q24.58 12.34 24.06 12.66Q23.54 12.99 23.16 13.26Q22.78 13.52 22.42 13.52L22.42 13.52Q22.13 13.52 21.92 13.37Q21.71 13.22 21.57 12.99L21.57 12.99ZM39.84 10.38L40.06 12.14Q40.59 11.55 41.18 11.07Q41.78 10.59 42.44 10.25Q43.10 9.90 43.85 9.72Q44.59 9.54 45.46 9.54L45.46 9.54Q46.78 9.54 47.80 9.98Q48.82 10.42 49.50 11.22Q50.18 12.03 50.53 13.17Q50.88 14.30 50.88 15.68L50.88 15.68L50.88 26L48.02 26L48.02 15.68Q48.02 13.84 47.18 12.82Q46.34 11.81 44.62 11.81L44.62 11.81Q43.36 11.81 42.26 12.42Q41.17 13.02 40.24 14.06L40.24 14.06L40.24 26L37.38 26L37.38 9.79L39.09 9.79Q39.70 9.79 39.84 10.38L39.84 10.38ZM55.39 9.79L58.24 9.79L58.24 26L55.39 26L55.39 9.79ZM58.85 4.70L58.85 4.70Q58.85 5.12 58.68 5.48Q58.51 5.84 58.23 6.12Q57.95 6.40 57.58 6.56Q57.20 6.72 56.78 6.72L56.78 6.72Q56.37 6.72 56.01 6.56Q55.65 6.40 55.38 6.12Q55.10 5.84 54.94 5.48Q54.78 5.12 54.78 4.70L54.78 4.70Q54.78 4.29 54.94 3.91Q55.10 3.54 55.38 3.26Q55.65 2.98 56.01 2.82Q56.37 2.66 56.78 2.66L56.78 2.66Q57.20 2.66 57.58 2.82Q57.95 2.98 58.23 3.26Q58.51 3.54 58.68 3.91Q58.85 4.29 58.85 4.70ZM74.94 11.65L74.19 12.67Q74.06 12.85 73.94 12.94Q73.81 13.04 73.58 13.04L73.58 13.04Q73.34 13.04 73.06 12.84Q72.77 12.64 72.34 12.40Q71.92 12.16 71.30 11.96Q70.69 11.76 69.79 11.76L69.79 11.76Q68.59 11.76 67.68 12.18Q66.77 12.61 66.15 13.41Q65.54 14.21 65.22 15.34Q64.91 16.48 64.91 17.89L64.91 17.89Q64.91 19.36 65.25 20.50Q65.58 21.65 66.20 22.42Q66.82 23.20 67.69 23.61Q68.56 24.02 69.65 24.02L69.65 24.02Q70.69 24.02 71.36 23.77Q72.03 23.52 72.47 23.22Q72.91 22.91 73.21 22.66Q73.50 22.42 73.79 22.42L73.79 22.42Q74.14 22.42 74.34 22.69L74.34 22.69L75.14 23.73Q74.61 24.38 73.94 24.85Q73.26 25.31 72.49 25.62Q71.71 25.94 70.86 26.08Q70.02 26.22 69.14 26.22L69.14 26.22Q67.62 26.22 66.31 25.66Q65.01 25.10 64.05 24.04Q63.09 22.98 62.54 21.42Q62.00 19.87 62.00 17.89L62.00 17.89Q62.00 16.08 62.50 14.54Q63.01 13.01 63.98 11.90Q64.94 10.78 66.36 10.16Q67.78 9.54 69.62 9.54L69.62 9.54Q71.33 9.54 72.63 10.09Q73.94 10.64 74.94 11.65L74.94 11.65ZM90.14 23.54L95.10 23.54Q96.43 23.54 97.39 23.23Q98.35 22.93 98.97 22.38Q99.58 21.82 99.87 21.06Q100.16 20.30 100.16 19.39L100.16 19.39Q100.16 17.62 98.90 16.58Q97.63 15.55 95.10 15.55L95.10 15.55L90.14 15.55L90.14 23.54ZM94.37 5.52L90.14 5.52L90.14 13.34L94.24 13.34Q95.55 13.34 96.52 13.06Q97.49 12.77 98.12 12.26Q98.75 11.74 99.06 11.02Q99.36 10.29 99.36 9.42L99.36 9.42Q99.36 7.39 98.14 6.46Q96.93 5.52 94.37 5.52L94.37 5.52ZM87.06 3.07L94.37 3.07Q96.48 3.07 98.01 3.49Q99.54 3.90 100.52 4.67Q101.50 5.44 101.97 6.55Q102.43 7.66 102.43 9.06L102.43 9.06Q102.43 9.90 102.17 10.68Q101.90 11.46 101.38 12.13Q100.85 12.80 100.04 13.34Q99.23 13.87 98.14 14.21L98.14 14.21Q100.67 14.69 101.94 16.01Q103.22 17.33 103.22 19.47L103.22 19.47Q103.22 20.93 102.68 22.13Q102.14 23.33 101.11 24.19Q100.08 25.06 98.58 25.53Q97.07 26 95.15 26L95.15 26L87.06 26L87.06 3.07ZM117.55 9.79L120.40 9.79L120.40 26L118.70 26Q118.10 26 117.94 25.41L117.94 25.41L117.71 23.66Q116.66 24.83 115.34 25.54Q114.03 26.26 112.34 26.26L112.34 26.26Q111.01 26.26 109.99 25.82Q108.98 25.38 108.29 24.58Q107.60 23.78 107.26 22.64Q106.91 21.50 106.91 20.13L106.91 20.13L106.91 9.79L109.76 9.79L109.76 20.13Q109.76 21.97 110.60 22.98Q111.44 23.98 113.17 23.98L113.17 23.98Q114.43 23.98 115.53 23.38Q116.62 22.78 117.55 21.73L117.55 21.73L117.55 9.79ZM129.89 26.26L129.89 26.26Q127.97 26.26 126.94 25.18Q125.90 24.11 125.90 22.10L125.90 22.10L125.90 12.18L123.95 12.18Q123.70 12.18 123.52 12.02Q123.34 11.87 123.34 11.55L123.34 11.55L123.34 10.42L126.00 10.08L126.66 5.07Q126.70 4.83 126.87 4.68Q127.04 4.53 127.31 4.53L127.31 4.53L128.75 4.53L128.75 10.11L133.44 10.11L133.44 12.18L128.75 12.18L128.75 21.90Q128.75 22.93 129.25 23.42Q129.74 23.92 130.53 23.92L130.53 23.92Q130.98 23.92 131.30 23.80Q131.63 23.68 131.87 23.54Q132.11 23.39 132.28 23.27Q132.45 23.15 132.58 23.15L132.58 23.15Q132.80 23.15 132.98 23.42L132.98 23.42L133.81 24.78Q133.07 25.47 132.03 25.86Q130.99 26.26 129.89 26.26ZM141.36 26.26L141.36 26.26Q139.44 26.26 138.41 25.18Q137.38 24.11 137.38 22.10L137.38 22.10L137.38 12.18L135.42 12.18Q135.17 12.18 134.99 12.02Q134.82 11.87 134.82 11.55L134.82 11.55L134.82 10.42L137.47 10.08L138.13 5.07Q138.18 4.83 138.34 4.68Q138.51 4.53 138.78 4.53L138.78 4.53L140.22 4.53L140.22 10.11L144.91 10.11L144.91 12.18L140.22 12.18L140.22 21.90Q140.22 22.93 140.72 23.42Q141.22 23.92 142 23.92L142 23.92Q142.45 23.92 142.78 23.80Q143.10 23.68 143.34 23.54Q143.58 23.39 143.75 23.27Q143.92 23.15 144.05 23.15L144.05 23.15Q144.27 23.15 144.45 23.42L144.45 23.42L145.28 24.78Q144.54 25.47 143.50 25.86Q142.46 26.26 141.36 26.26ZM154.69 9.54L154.69 9.54Q156.46 9.54 157.89 10.13Q159.31 10.72 160.32 11.81Q161.33 12.90 161.86 14.44Q162.40 15.98 162.40 17.89L162.40 17.89Q162.40 19.81 161.86 21.34Q161.33 22.88 160.32 23.97Q159.31 25.06 157.89 25.64Q156.46 26.22 154.69 26.22L154.69 26.22Q152.90 26.22 151.46 25.64Q150.03 25.06 149.02 23.97Q148.02 22.88 147.48 21.34Q146.94 19.81 146.94 17.89L146.94 17.89Q146.94 15.98 147.48 14.44Q148.02 12.90 149.02 11.81Q150.03 10.72 151.46 10.13Q152.90 9.54 154.69 9.54ZM154.69 24L154.69 24Q157.09 24 158.27 22.39Q159.46 20.78 159.46 17.90L159.46 17.90Q159.46 15.01 158.27 13.39Q157.09 11.78 154.69 11.78L154.69 11.78Q153.47 11.78 152.57 12.19Q151.66 12.61 151.06 13.39Q150.46 14.18 150.17 15.32Q149.87 16.46 149.87 17.90L149.87 17.90Q149.87 20.78 151.06 22.39Q152.26 24 154.69 24ZM168.46 10.38L168.69 12.14Q169.22 11.55 169.81 11.07Q170.40 10.59 171.06 10.25Q171.73 9.90 172.47 9.72Q173.22 9.54 174.08 9.54L174.08 9.54Q175.41 9.54 176.42 9.98Q177.44 10.42 178.12 11.22Q178.80 12.03 179.15 13.17Q179.50 14.30 179.50 15.68L179.50 15.68L179.50 26L176.64 26L176.64 15.68Q176.64 13.84 175.80 12.82Q174.96 11.81 173.25 11.81L173.25 11.81Q171.98 11.81 170.89 12.42Q169.79 13.02 168.86 14.06L168.86 14.06L168.86 26L166.00 26L166.00 9.79L167.71 9.79Q168.32 9.79 168.46 10.38L168.46 10.38Z"></path></svg><svg fill="#ffffff" x="27.108999633789068" y="218.54000043869019"><path d="M3.02 11.74L8.54 11.74L8.53 13L1.46 13L1.46 1.54L8.53 1.54L8.53 2.80L3.02 2.80L3.02 6.61L7.48 6.61L7.48 7.82L3.02 7.82L3.02 11.74ZM14.18 8.77L17.02 13L15.66 13Q15.48 13 15.38 12.91Q15.28 12.82 15.22 12.70L15.22 12.70L13.18 9.53Q13.14 9.64 13.11 9.75Q13.07 9.86 13.01 9.94L13.01 9.94L11.12 12.70Q11.04 12.82 10.95 12.91Q10.86 13 10.70 13L10.70 13L9.42 13L12.26 8.84L9.54 4.90L10.90 4.90Q11.08 4.90 11.16 4.95Q11.24 5.01 11.30 5.11L11.30 5.11L13.30 8.15Q13.36 7.92 13.50 7.70L13.50 7.70L15.24 5.14Q15.31 5.03 15.40 4.96Q15.48 4.90 15.60 4.90L15.60 4.90L16.91 4.90L14.18 8.77ZM20.82 13.13L20.82 13.13Q19.86 13.13 19.35 12.59Q18.83 12.06 18.83 11.05L18.83 11.05L18.83 6.09L17.86 6.09Q17.73 6.09 17.64 6.01Q17.55 5.94 17.55 5.78L17.55 5.78L17.55 5.21L18.88 5.04L19.21 2.54Q19.23 2.42 19.32 2.34Q19.40 2.26 19.54 2.26L19.54 2.26L20.26 2.26L20.26 5.06L22.60 5.06L22.60 6.09L20.26 6.09L20.26 10.95Q20.26 11.46 20.50 11.71Q20.75 11.96 21.14 11.96L21.14 11.96Q21.37 11.96 21.53 11.90Q21.70 11.84 21.82 11.77Q21.94 11.70 22.02 11.64Q22.10 11.58 22.17 11.58L22.17 11.58Q22.28 11.58 22.37 11.71L22.37 11.71L22.78 12.39Q22.42 12.74 21.90 12.93Q21.38 13.13 20.82 13.13ZM25.33 5.29L25.42 6.52Q25.81 5.69 26.37 5.22Q26.93 4.75 27.74 4.75L27.74 4.75Q27.99 4.75 28.23 4.81Q28.46 4.86 28.65 4.98L28.65 4.98L28.54 6.05Q28.50 6.25 28.30 6.25L28.30 6.25Q28.19 6.25 27.98 6.20Q27.76 6.15 27.49 6.15L27.49 6.15Q27.10 6.15 26.80 6.26Q26.50 6.38 26.27 6.60Q26.03 6.82 25.84 7.14Q25.66 7.46 25.50 7.88L25.50 7.88L25.50 13L24.07 13L24.07 4.90L24.89 4.90Q25.12 4.90 25.21 4.98Q25.30 5.07 25.33 5.29L25.33 5.29ZM33.31 4.77L33.31 4.77Q34.20 4.77 34.91 5.06Q35.62 5.36 36.13 5.90Q36.63 6.45 36.90 7.22Q37.17 7.99 37.17 8.94L37.17 8.94Q37.17 9.90 36.90 10.67Q36.63 11.44 36.13 11.98Q35.62 12.53 34.91 12.82Q34.20 13.11 33.31 13.11L33.31 13.11Q32.42 13.11 31.70 12.82Q30.98 12.53 30.48 11.98Q29.98 11.44 29.71 10.67Q29.44 9.90 29.44 8.94L29.44 8.94Q29.44 7.99 29.71 7.22Q29.98 6.45 30.48 5.90Q30.98 5.36 31.70 5.06Q32.42 4.77 33.31 4.77ZM33.31 12L33.31 12Q34.51 12 35.10 11.20Q35.70 10.39 35.70 8.95L35.70 8.95Q35.70 7.50 35.10 6.70Q34.51 5.89 33.31 5.89L33.31 5.89Q32.70 5.89 32.25 6.10Q31.80 6.30 31.50 6.70Q31.20 7.09 31.05 7.66Q30.90 8.23 30.90 8.95L30.90 8.95Q30.90 10.39 31.50 11.20Q32.10 12 33.31 12ZM44.80 4.90L45.91 4.90L42.61 13L41.33 13L38.02 4.90L39.18 4.90Q39.36 4.90 39.47 4.98Q39.58 5.07 39.62 5.19L39.62 5.19L41.68 10.41Q41.78 10.70 41.85 10.98Q41.92 11.26 41.98 11.54L41.98 11.54Q42.05 11.26 42.12 10.98Q42.19 10.70 42.30 10.41L42.30 10.41L44.38 5.19Q44.42 5.06 44.54 4.98Q44.65 4.90 44.80 4.90L44.80 4.90ZM48.22 8.06L52.65 8.06Q52.65 7.57 52.51 7.16Q52.37 6.74 52.10 6.44Q51.83 6.14 51.45 5.98Q51.06 5.82 50.58 5.82L50.58 5.82Q49.55 5.82 48.96 6.41Q48.36 7.01 48.22 8.06L48.22 8.06ZM53.40 11.34L53.80 11.86Q53.54 12.18 53.17 12.42Q52.80 12.66 52.38 12.81Q51.96 12.96 51.51 13.04Q51.06 13.11 50.62 13.11L50.62 13.11Q49.78 13.11 49.08 12.83Q48.37 12.54 47.85 12.00Q47.34 11.45 47.05 10.64Q46.76 9.83 46.76 8.78L46.76 8.78Q46.76 7.94 47.02 7.20Q47.28 6.46 47.77 5.92Q48.26 5.38 48.96 5.08Q49.66 4.77 50.54 4.77L50.54 4.77Q51.27 4.77 51.89 5.01Q52.51 5.26 52.96 5.72Q53.42 6.18 53.67 6.85Q53.93 7.53 53.93 8.39L53.93 8.39Q53.93 8.73 53.86 8.84Q53.78 8.95 53.58 8.95L53.58 8.95L48.17 8.95Q48.19 9.72 48.38 10.29Q48.57 10.86 48.90 11.24Q49.24 11.62 49.70 11.80Q50.17 11.99 50.74 11.99L50.74 11.99Q51.28 11.99 51.67 11.87Q52.06 11.74 52.34 11.60Q52.62 11.46 52.80 11.33Q52.99 11.21 53.13 11.21L53.13 11.21Q53.30 11.21 53.40 11.34L53.40 11.34ZM56.93 5.29L57.02 6.52Q57.41 5.69 57.97 5.22Q58.53 4.75 59.34 4.75L59.34 4.75Q59.59 4.75 59.83 4.81Q60.06 4.86 60.25 4.98L60.25 4.98L60.14 6.05Q60.10 6.25 59.90 6.25L59.90 6.25Q59.79 6.25 59.58 6.20Q59.36 6.15 59.09 6.15L59.09 6.15Q58.70 6.15 58.40 6.26Q58.10 6.38 57.87 6.60Q57.63 6.82 57.44 7.14Q57.26 7.46 57.10 7.88L57.10 7.88L57.10 13L55.67 13L55.67 4.90L56.49 4.90Q56.72 4.90 56.81 4.98Q56.90 5.07 56.93 5.29L56.93 5.29ZM63.98 13.13L63.98 13.13Q63.02 13.13 62.51 12.59Q61.99 12.06 61.99 11.05L61.99 11.05L61.99 6.09L61.02 6.09Q60.89 6.09 60.80 6.01Q60.71 5.94 60.71 5.78L60.71 5.78L60.71 5.21L62.04 5.04L62.37 2.54Q62.39 2.42 62.48 2.34Q62.56 2.26 62.70 2.26L62.70 2.26L63.42 2.26L63.42 5.06L65.76 5.06L65.76 6.09L63.42 6.09L63.42 10.95Q63.42 11.46 63.66 11.71Q63.91 11.96 64.30 11.96L64.30 11.96Q64.53 11.96 64.69 11.90Q64.86 11.84 64.98 11.77Q65.10 11.70 65.18 11.64Q65.26 11.58 65.33 11.58L65.33 11.58Q65.44 11.58 65.53 11.71L65.53 11.71L65.94 12.39Q65.58 12.74 65.06 12.93Q64.54 13.13 63.98 13.13ZM76.61 10.74L76.61 6.82Q76.22 6.30 75.75 6.08Q75.28 5.86 74.70 5.86L74.70 5.86Q73.58 5.86 72.97 6.67Q72.36 7.48 72.36 8.98L72.36 8.98Q72.36 9.77 72.50 10.33Q72.63 10.90 72.90 11.26Q73.16 11.62 73.54 11.79Q73.93 11.96 74.42 11.96L74.42 11.96Q75.12 11.96 75.64 11.64Q76.17 11.32 76.61 10.74L76.61 10.74ZM77.18 4.90L78.03 4.90L78.03 15.74L76.61 15.74L76.61 11.79Q76.10 12.38 75.45 12.75Q74.79 13.11 73.95 13.11L73.95 13.11Q73.26 13.11 72.69 12.84Q72.12 12.58 71.72 12.06Q71.32 11.54 71.10 10.76Q70.89 9.98 70.89 8.98L70.89 8.98Q70.89 8.08 71.13 7.31Q71.37 6.54 71.82 5.97Q72.26 5.40 72.92 5.08Q73.57 4.75 74.38 4.75L74.38 4.75Q75.18 4.75 75.73 5.03Q76.28 5.31 76.70 5.82L76.70 5.82L76.80 5.19Q76.88 4.90 77.18 4.90L77.18 4.90ZM85.53 4.90L86.95 4.90L86.95 13L86.10 13Q85.80 13 85.72 12.70L85.72 12.70L85.61 11.83Q85.08 12.42 84.42 12.77Q83.77 13.13 82.92 13.13L82.92 13.13Q82.26 13.13 81.75 12.91Q81.24 12.69 80.90 12.29Q80.55 11.89 80.38 11.32Q80.21 10.75 80.21 10.06L80.21 10.06L80.21 4.90L81.63 4.90L81.63 10.06Q81.63 10.98 82.05 11.49Q82.47 11.99 83.34 11.99L83.34 11.99Q83.97 11.99 84.52 11.69Q85.06 11.39 85.53 10.86L85.53 10.86L85.53 4.90ZM90.20 8.06L94.63 8.06Q94.63 7.57 94.49 7.16Q94.35 6.74 94.08 6.44Q93.82 6.14 93.43 5.98Q93.05 5.82 92.56 5.82L92.56 5.82Q91.54 5.82 90.94 6.41Q90.34 7.01 90.20 8.06L90.20 8.06ZM95.38 11.34L95.78 11.86Q95.52 12.18 95.15 12.42Q94.78 12.66 94.36 12.81Q93.94 12.96 93.50 13.04Q93.05 13.11 92.61 13.11L92.61 13.11Q91.77 13.11 91.06 12.83Q90.35 12.54 89.84 12.00Q89.32 11.45 89.03 10.64Q88.74 9.83 88.74 8.78L88.74 8.78Q88.74 7.94 89.00 7.20Q89.26 6.46 89.75 5.92Q90.24 5.38 90.94 5.08Q91.65 4.77 92.53 4.77L92.53 4.77Q93.26 4.77 93.88 5.01Q94.50 5.26 94.95 5.72Q95.40 6.18 95.66 6.85Q95.91 7.53 95.91 8.39L95.91 8.39Q95.91 8.73 95.84 8.84Q95.77 8.95 95.57 8.95L95.57 8.95L90.15 8.95Q90.18 9.72 90.36 10.29Q90.55 10.86 90.89 11.24Q91.22 11.62 91.69 11.80Q92.15 11.99 92.73 11.99L92.73 11.99Q93.26 11.99 93.65 11.87Q94.04 11.74 94.32 11.60Q94.60 11.46 94.79 11.33Q94.98 11.21 95.11 11.21L95.11 11.21Q95.29 11.21 95.38 11.34L95.38 11.34ZM102.70 5.71L102.38 6.23Q102.28 6.41 102.08 6.41L102.08 6.41Q101.96 6.41 101.81 6.32Q101.66 6.23 101.44 6.12Q101.22 6.02 100.91 5.92Q100.61 5.83 100.19 5.83L100.19 5.83Q99.83 5.83 99.54 5.92Q99.26 6.02 99.05 6.18Q98.85 6.34 98.74 6.55Q98.63 6.76 98.63 7.01L98.63 7.01Q98.63 7.32 98.81 7.53Q98.99 7.74 99.29 7.89Q99.58 8.04 99.96 8.16Q100.34 8.27 100.73 8.40Q101.13 8.54 101.50 8.70Q101.88 8.86 102.18 9.10Q102.47 9.34 102.65 9.68Q102.83 10.03 102.83 10.52L102.83 10.52Q102.83 11.08 102.63 11.56Q102.43 12.03 102.04 12.38Q101.65 12.73 101.08 12.93Q100.51 13.13 99.77 13.13L99.77 13.13Q98.92 13.13 98.23 12.85Q97.54 12.58 97.06 12.14L97.06 12.14L97.40 11.60Q97.46 11.50 97.55 11.44Q97.64 11.38 97.78 11.38L97.78 11.38Q97.92 11.38 98.08 11.50Q98.24 11.61 98.47 11.74Q98.70 11.88 99.02 11.99Q99.35 12.10 99.84 12.10L99.84 12.10Q100.26 12.10 100.57 12.00Q100.88 11.89 101.09 11.70Q101.30 11.52 101.40 11.28Q101.50 11.04 101.50 10.77L101.50 10.77Q101.50 10.43 101.32 10.21Q101.14 9.99 100.84 9.84Q100.54 9.68 100.16 9.56Q99.78 9.45 99.39 9.32Q98.99 9.19 98.61 9.03Q98.23 8.86 97.94 8.62Q97.64 8.37 97.46 8.00Q97.28 7.64 97.28 7.12L97.28 7.12Q97.28 6.66 97.47 6.23Q97.66 5.80 98.03 5.48Q98.40 5.15 98.94 4.96Q99.47 4.77 100.16 4.77L100.16 4.77Q100.96 4.77 101.60 5.02Q102.23 5.27 102.70 5.71L102.70 5.71ZM107.07 13.13L107.07 13.13Q106.11 13.13 105.60 12.59Q105.08 12.06 105.08 11.05L105.08 11.05L105.08 6.09L104.10 6.09Q103.98 6.09 103.89 6.01Q103.80 5.94 103.80 5.78L103.80 5.78L103.80 5.21L105.13 5.04L105.46 2.54Q105.48 2.42 105.56 2.34Q105.65 2.26 105.78 2.26L105.78 2.26L106.50 2.26L106.50 5.06L108.85 5.06L108.85 6.09L106.50 6.09L106.50 10.95Q106.50 11.46 106.75 11.71Q107.00 11.96 107.39 11.96L107.39 11.96Q107.62 11.96 107.78 11.90Q107.94 11.84 108.06 11.77Q108.18 11.70 108.27 11.64Q108.35 11.58 108.42 11.58L108.42 11.58Q108.53 11.58 108.62 11.71L108.62 11.71L109.03 12.39Q108.66 12.74 108.14 12.93Q107.62 13.13 107.07 13.13ZM110.40 4.90L111.82 4.90L111.82 13L110.40 13L110.40 4.90ZM112.13 2.35L112.13 2.35Q112.13 2.56 112.04 2.74Q111.96 2.92 111.82 3.06Q111.68 3.20 111.49 3.28Q111.30 3.36 111.10 3.36L111.10 3.36Q110.89 3.36 110.71 3.28Q110.53 3.20 110.39 3.06Q110.26 2.92 110.18 2.74Q110.10 2.56 110.10 2.35L110.10 2.35Q110.10 2.14 110.18 1.96Q110.26 1.77 110.39 1.63Q110.53 1.49 110.71 1.41Q110.89 1.33 111.10 1.33L111.10 1.33Q111.30 1.33 111.49 1.41Q111.68 1.49 111.82 1.63Q111.96 1.77 112.04 1.96Q112.13 2.14 112.13 2.35ZM117.58 4.77L117.58 4.77Q118.46 4.77 119.18 5.06Q119.89 5.36 120.39 5.90Q120.90 6.45 121.16 7.22Q121.43 7.99 121.43 8.94L121.43 8.94Q121.43 9.90 121.16 10.67Q120.90 11.44 120.39 11.98Q119.89 12.53 119.18 12.82Q118.46 13.11 117.58 13.11L117.58 13.11Q116.68 13.11 115.96 12.82Q115.25 12.53 114.74 11.98Q114.24 11.44 113.97 10.67Q113.70 9.90 113.70 8.94L113.70 8.94Q113.70 7.99 113.97 7.22Q114.24 6.45 114.74 5.90Q115.25 5.36 115.96 5.06Q116.68 4.77 117.58 4.77ZM117.58 12L117.58 12Q118.78 12 119.37 11.20Q119.96 10.39 119.96 8.95L119.96 8.95Q119.96 7.50 119.37 6.70Q118.78 5.89 117.58 5.89L117.58 5.89Q116.97 5.89 116.52 6.10Q116.06 6.30 115.76 6.70Q115.46 7.09 115.32 7.66Q115.17 8.23 115.17 8.95L115.17 8.95Q115.17 10.39 115.76 11.20Q116.36 12 117.58 12ZM124.46 5.19L124.58 6.07Q124.84 5.78 125.14 5.54Q125.43 5.30 125.76 5.12Q126.10 4.95 126.47 4.86Q126.84 4.77 127.27 4.77L127.27 4.77Q127.94 4.77 128.44 4.99Q128.95 5.21 129.29 5.61Q129.63 6.02 129.81 6.58Q129.98 7.15 129.98 7.84L129.98 7.84L129.98 13L128.55 13L128.55 7.84Q128.55 6.92 128.13 6.41Q127.71 5.90 126.86 5.90L126.86 5.90Q126.22 5.90 125.68 6.21Q125.13 6.51 124.66 7.03L124.66 7.03L124.66 13L123.23 13L123.23 4.90L124.09 4.90Q124.39 4.90 124.46 5.19L124.46 5.19ZM138.22 13L136.78 13L136.78 6.11L135.89 6.01Q135.72 5.97 135.61 5.88Q135.50 5.80 135.50 5.64L135.50 5.64L135.50 5.06L136.78 5.06L136.78 4.27Q136.78 3.58 136.98 3.04Q137.18 2.50 137.54 2.12Q137.90 1.75 138.42 1.56Q138.93 1.37 139.57 1.37L139.57 1.37Q140.11 1.37 140.57 1.53L140.57 1.53L140.54 2.24Q140.52 2.43 140.32 2.45Q140.13 2.46 139.80 2.46L139.80 2.46Q139.43 2.46 139.13 2.56Q138.83 2.66 138.62 2.87Q138.40 3.09 138.28 3.44Q138.17 3.79 138.17 4.31L138.17 4.31L138.17 5.06L140.50 5.06L140.50 6.09L138.22 6.09L138.22 13ZM145.28 4.77L145.28 4.77Q146.17 4.77 146.88 5.06Q147.59 5.36 148.10 5.90Q148.60 6.45 148.87 7.22Q149.14 7.99 149.14 8.94L149.14 8.94Q149.14 9.90 148.87 10.67Q148.60 11.44 148.10 11.98Q147.59 12.53 146.88 12.82Q146.17 13.11 145.28 13.11L145.28 13.11Q144.38 13.11 143.67 12.82Q142.95 12.53 142.45 11.98Q141.94 11.44 141.68 10.67Q141.41 9.90 141.41 8.94L141.41 8.94Q141.41 7.99 141.68 7.22Q141.94 6.45 142.45 5.90Q142.95 5.36 143.67 5.06Q144.38 4.77 145.28 4.77ZM145.28 12L145.28 12Q146.48 12 147.07 11.20Q147.66 10.39 147.66 8.95L147.66 8.95Q147.66 7.50 147.07 6.70Q146.48 5.89 145.28 5.89L145.28 5.89Q144.67 5.89 144.22 6.10Q143.77 6.30 143.47 6.70Q143.17 7.09 143.02 7.66Q142.87 8.23 142.87 8.95L142.87 8.95Q142.87 10.39 143.47 11.20Q144.06 12 145.28 12ZM152.19 5.29L152.29 6.52Q152.67 5.69 153.23 5.22Q153.79 4.75 154.60 4.75L154.60 4.75Q154.86 4.75 155.09 4.81Q155.33 4.86 155.51 4.98L155.51 4.98L155.41 6.05Q155.36 6.25 155.17 6.25L155.17 6.25Q155.06 6.25 154.84 6.20Q154.62 6.15 154.35 6.15L154.35 6.15Q153.97 6.15 153.67 6.26Q153.37 6.38 153.13 6.60Q152.90 6.82 152.71 7.14Q152.52 7.46 152.37 7.88L152.37 7.88L152.37 13L150.94 13L150.94 4.90L151.75 4.90Q151.98 4.90 152.07 4.98Q152.16 5.07 152.19 5.29L152.19 5.29ZM160.94 4.90L162.36 4.90L162.36 13L160.94 13L160.94 4.90ZM162.66 2.35L162.66 2.35Q162.66 2.56 162.58 2.74Q162.50 2.92 162.36 3.06Q162.22 3.20 162.03 3.28Q161.84 3.36 161.63 3.36L161.63 3.36Q161.42 3.36 161.24 3.28Q161.06 3.20 160.93 3.06Q160.79 2.92 160.71 2.74Q160.63 2.56 160.63 2.35L160.63 2.35Q160.63 2.14 160.71 1.96Q160.79 1.77 160.93 1.63Q161.06 1.49 161.24 1.41Q161.42 1.33 161.63 1.33L161.63 1.33Q161.84 1.33 162.03 1.41Q162.22 1.49 162.36 1.63Q162.50 1.77 162.58 1.96Q162.66 2.14 162.66 2.35ZM165.93 5.19L166.04 6.07Q166.30 5.78 166.60 5.54Q166.90 5.30 167.23 5.12Q167.56 4.95 167.93 4.86Q168.30 4.77 168.74 4.77L168.74 4.77Q169.40 4.77 169.91 4.99Q170.42 5.21 170.76 5.61Q171.10 6.02 171.27 6.58Q171.45 7.15 171.45 7.84L171.45 7.84L171.45 13L170.02 13L170.02 7.84Q170.02 6.92 169.60 6.41Q169.18 5.90 168.32 5.90L168.32 5.90Q167.69 5.90 167.14 6.21Q166.59 6.51 166.13 7.03L166.13 7.03L166.13 13L164.70 13L164.70 4.90L165.55 4.90Q165.86 4.90 165.93 5.19L165.93 5.19ZM176.11 13.13L176.11 13.13Q175.15 13.13 174.64 12.59Q174.12 12.06 174.12 11.05L174.12 11.05L174.12 6.09L173.14 6.09Q173.02 6.09 172.93 6.01Q172.84 5.94 172.84 5.78L172.84 5.78L172.84 5.21L174.17 5.04L174.50 2.54Q174.52 2.42 174.60 2.34Q174.69 2.26 174.82 2.26L174.82 2.26L175.54 2.26L175.54 5.06L177.89 5.06L177.89 6.09L175.54 6.09L175.54 10.95Q175.54 11.46 175.79 11.71Q176.04 11.96 176.43 11.96L176.43 11.96Q176.66 11.96 176.82 11.90Q176.98 11.84 177.10 11.77Q177.22 11.70 177.31 11.64Q177.39 11.58 177.46 11.58L177.46 11.58Q177.57 11.58 177.66 11.71L177.66 11.71L178.07 12.39Q177.70 12.74 177.18 12.93Q176.66 13.13 176.11 13.13ZM180.62 5.29L180.71 6.52Q181.10 5.69 181.66 5.22Q182.22 4.75 183.02 4.75L183.02 4.75Q183.28 4.75 183.52 4.81Q183.75 4.86 183.94 4.98L183.94 4.98L183.83 6.05Q183.78 6.25 183.59 6.25L183.59 6.25Q183.48 6.25 183.26 6.20Q183.05 6.15 182.78 6.15L182.78 6.15Q182.39 6.15 182.09 6.26Q181.79 6.38 181.56 6.60Q181.32 6.82 181.13 7.14Q180.94 7.46 180.79 7.88L180.79 7.88L180.79 13L179.36 13L179.36 4.90L180.18 4.90Q180.41 4.90 180.50 4.98Q180.58 5.07 180.62 5.29L180.62 5.29ZM188.60 4.77L188.60 4.77Q189.49 4.77 190.20 5.06Q190.91 5.36 191.42 5.90Q191.92 6.45 192.19 7.22Q192.46 7.99 192.46 8.94L192.46 8.94Q192.46 9.90 192.19 10.67Q191.92 11.44 191.42 11.98Q190.91 12.53 190.20 12.82Q189.49 13.11 188.60 13.11L188.60 13.11Q187.70 13.11 186.99 12.82Q186.27 12.53 185.77 11.98Q185.26 11.44 185.00 10.67Q184.73 9.90 184.73 8.94L184.73 8.94Q184.73 7.99 185.00 7.22Q185.26 6.45 185.77 5.90Q186.27 5.36 186.99 5.06Q187.70 4.77 188.60 4.77ZM188.60 12L188.60 12Q189.80 12 190.39 11.20Q190.98 10.39 190.98 8.95L190.98 8.95Q190.98 7.50 190.39 6.70Q189.80 5.89 188.60 5.89L188.60 5.89Q187.99 5.89 187.54 6.10Q187.09 6.30 186.79 6.70Q186.49 7.09 186.34 7.66Q186.19 8.23 186.19 8.95L186.19 8.95Q186.19 10.39 186.79 11.20Q187.38 12 188.60 12ZM200.09 4.90L201.20 4.90L197.90 13L196.62 13L193.31 4.90L194.47 4.90Q194.65 4.90 194.76 4.98Q194.87 5.07 194.91 5.19L194.91 5.19L196.97 10.41Q197.06 10.70 197.14 10.98Q197.21 11.26 197.27 11.54L197.27 11.54Q197.34 11.26 197.41 10.98Q197.48 10.70 197.58 10.41L197.58 10.41L199.66 5.19Q199.71 5.06 199.82 4.98Q199.94 4.90 200.09 4.90L200.09 4.90ZM203.50 8.06L207.94 8.06Q207.94 7.57 207.80 7.16Q207.66 6.74 207.39 6.44Q207.12 6.14 206.74 5.98Q206.35 5.82 205.86 5.82L205.86 5.82Q204.84 5.82 204.24 6.41Q203.65 7.01 203.50 8.06L203.50 8.06ZM208.69 11.34L209.09 11.86Q208.82 12.18 208.46 12.42Q208.09 12.66 207.67 12.81Q207.25 12.96 206.80 13.04Q206.35 13.11 205.91 13.11L205.91 13.11Q205.07 13.11 204.36 12.83Q203.66 12.54 203.14 12.00Q202.62 11.45 202.34 10.64Q202.05 9.83 202.05 8.78L202.05 8.78Q202.05 7.94 202.31 7.20Q202.57 6.46 203.06 5.92Q203.54 5.38 204.25 5.08Q204.95 4.77 205.83 4.77L205.83 4.77Q206.56 4.77 207.18 5.01Q207.80 5.26 208.25 5.72Q208.70 6.18 208.96 6.85Q209.22 7.53 209.22 8.39L209.22 8.39Q209.22 8.73 209.14 8.84Q209.07 8.95 208.87 8.95L208.87 8.95L203.46 8.95Q203.48 9.72 203.67 10.29Q203.86 10.86 204.19 11.24Q204.53 11.62 204.99 11.80Q205.46 11.99 206.03 11.99L206.03 11.99Q206.57 11.99 206.96 11.87Q207.34 11.74 207.62 11.60Q207.90 11.46 208.09 11.33Q208.28 11.21 208.42 11.21L208.42 11.21Q208.59 11.21 208.69 11.34L208.69 11.34ZM212.22 5.29L212.31 6.52Q212.70 5.69 213.26 5.22Q213.82 4.75 214.62 4.75L214.62 4.75Q214.88 4.75 215.12 4.81Q215.35 4.86 215.54 4.98L215.54 4.98L215.43 6.05Q215.38 6.25 215.19 6.25L215.19 6.25Q215.08 6.25 214.86 6.20Q214.65 6.15 214.38 6.15L214.38 6.15Q213.99 6.15 213.69 6.26Q213.39 6.38 213.16 6.60Q212.92 6.82 212.73 7.14Q212.54 7.46 212.39 7.88L212.39 7.88L212.39 13L210.96 13L210.96 4.90L211.78 4.90Q212.01 4.90 212.10 4.98Q212.18 5.07 212.22 5.29L212.22 5.29ZM219.27 13.13L219.27 13.13Q218.31 13.13 217.80 12.59Q217.28 12.06 217.28 11.05L217.28 11.05L217.28 6.09L216.30 6.09Q216.18 6.09 216.09 6.01Q216.00 5.94 216.00 5.78L216.00 5.78L216.00 5.21L217.33 5.04L217.66 2.54Q217.68 2.42 217.76 2.34Q217.85 2.26 217.98 2.26L217.98 2.26L218.70 2.26L218.70 5.06L221.05 5.06L221.05 6.09L218.70 6.09L218.70 10.95Q218.70 11.46 218.95 11.71Q219.20 11.96 219.59 11.96L219.59 11.96Q219.82 11.96 219.98 11.90Q220.14 11.84 220.26 11.77Q220.38 11.70 220.47 11.64Q220.55 11.58 220.62 11.58L220.62 11.58Q220.73 11.58 220.82 11.71L220.82 11.71L221.23 12.39Q220.86 12.74 220.34 12.93Q219.82 13.13 219.27 13.13ZM228.05 7.13L228.05 11.05Q228.44 11.58 228.90 11.79Q229.37 12.01 229.94 12.01L229.94 12.01Q231.08 12.01 231.69 11.20Q232.30 10.39 232.30 8.90L232.30 8.90Q232.30 8.10 232.16 7.54Q232.02 6.97 231.75 6.60Q231.49 6.24 231.10 6.07Q230.72 5.90 230.23 5.90L230.23 5.90Q229.54 5.90 229.01 6.22Q228.49 6.54 228.05 7.13L228.05 7.13ZM227.85 5.19L227.98 6.15Q228.49 5.52 229.16 5.14Q229.83 4.75 230.70 4.75L230.70 4.75Q231.40 4.75 231.97 5.02Q232.54 5.29 232.94 5.81Q233.34 6.34 233.55 7.11Q233.77 7.89 233.77 8.90L233.77 8.90Q233.77 9.79 233.53 10.56Q233.29 11.34 232.84 11.90Q232.38 12.46 231.73 12.79Q231.08 13.11 230.26 13.11L230.26 13.11Q229.52 13.11 228.99 12.86Q228.46 12.61 228.05 12.16L228.05 12.16L228.05 15.74L226.62 15.74L226.62 4.90L227.47 4.90Q227.78 4.90 227.85 5.19L227.85 5.19ZM236.58 8.06L241.01 8.06Q241.01 7.57 240.87 7.16Q240.73 6.74 240.46 6.44Q240.19 6.14 239.81 5.98Q239.42 5.82 238.94 5.82L238.94 5.82Q237.91 5.82 237.32 6.41Q236.72 7.01 236.58 8.06L236.58 8.06ZM241.76 11.34L242.16 11.86Q241.90 12.18 241.53 12.42Q241.16 12.66 240.74 12.81Q240.32 12.96 239.87 13.04Q239.42 13.11 238.98 13.11L238.98 13.11Q238.14 13.11 237.44 12.83Q236.73 12.54 236.21 12.00Q235.70 11.45 235.41 10.64Q235.12 9.83 235.12 8.78L235.12 8.78Q235.12 7.94 235.38 7.20Q235.64 6.46 236.13 5.92Q236.62 5.38 237.32 5.08Q238.02 4.77 238.90 4.77L238.90 4.77Q239.63 4.77 240.25 5.01Q240.87 5.26 241.32 5.72Q241.78 6.18 242.03 6.85Q242.29 7.53 242.29 8.39L242.29 8.39Q242.29 8.73 242.22 8.84Q242.14 8.95 241.94 8.95L241.94 8.95L236.53 8.95Q236.55 9.72 236.74 10.29Q236.93 10.86 237.26 11.24Q237.60 11.62 238.06 11.80Q238.53 11.99 239.10 11.99L239.10 11.99Q239.64 11.99 240.03 11.87Q240.42 11.74 240.70 11.60Q240.98 11.46 241.16 11.33Q241.35 11.21 241.49 11.21L241.49 11.21Q241.66 11.21 241.76 11.34L241.76 11.34ZM247.45 4.77L247.45 4.77Q248.34 4.77 249.05 5.06Q249.76 5.36 250.26 5.90Q250.77 6.45 251.04 7.22Q251.30 7.99 251.30 8.94L251.30 8.94Q251.30 9.90 251.04 10.67Q250.77 11.44 250.26 11.98Q249.76 12.53 249.05 12.82Q248.34 13.11 247.45 13.11L247.45 13.11Q246.55 13.11 245.84 12.82Q245.12 12.53 244.62 11.98Q244.11 11.44 243.84 10.67Q243.58 9.90 243.58 8.94L243.58 8.94Q243.58 7.99 243.84 7.22Q244.11 6.45 244.62 5.90Q245.12 5.36 245.84 5.06Q246.55 4.77 247.45 4.77ZM247.45 12L247.45 12Q248.65 12 249.24 11.20Q249.83 10.39 249.83 8.95L249.83 8.95Q249.83 7.50 249.24 6.70Q248.65 5.89 247.45 5.89L247.45 5.89Q246.84 5.89 246.39 6.10Q245.94 6.30 245.64 6.70Q245.34 7.09 245.19 7.66Q245.04 8.23 245.04 8.95L245.04 8.95Q245.04 10.39 245.64 11.20Q246.23 12 247.45 12ZM254.54 7.13L254.54 11.05Q254.93 11.58 255.39 11.79Q255.86 12.01 256.43 12.01L256.43 12.01Q257.57 12.01 258.18 11.20Q258.78 10.39 258.78 8.90L258.78 8.90Q258.78 8.10 258.64 7.54Q258.50 6.97 258.24 6.60Q257.98 6.24 257.59 6.07Q257.21 5.90 256.72 5.90L256.72 5.90Q256.02 5.90 255.50 6.22Q254.98 6.54 254.54 7.13L254.54 7.13ZM254.34 5.19L254.46 6.15Q254.98 5.52 255.65 5.14Q256.32 4.75 257.18 4.75L257.18 4.75Q257.89 4.75 258.46 5.02Q259.02 5.29 259.42 5.81Q259.82 6.34 260.04 7.11Q260.26 7.89 260.26 8.90L260.26 8.90Q260.26 9.79 260.02 10.56Q259.78 11.34 259.32 11.90Q258.87 12.46 258.22 12.79Q257.57 13.11 256.75 13.11L256.75 13.11Q256.01 13.11 255.48 12.86Q254.94 12.61 254.54 12.16L254.54 12.16L254.54 15.74L253.10 15.74L253.10 4.90L253.96 4.90Q254.26 4.90 254.34 5.19L254.34 5.19ZM262.12 1.22L263.54 1.22L263.54 13L262.12 13L262.12 1.22ZM266.84 8.06L271.27 8.06Q271.27 7.57 271.13 7.16Q270.99 6.74 270.72 6.44Q270.46 6.14 270.07 5.98Q269.69 5.82 269.20 5.82L269.20 5.82Q268.18 5.82 267.58 6.41Q266.98 7.01 266.84 8.06L266.84 8.06ZM272.02 11.34L272.42 11.86Q272.16 12.18 271.79 12.42Q271.42 12.66 271.00 12.81Q270.58 12.96 270.14 13.04Q269.69 13.11 269.25 13.11L269.25 13.11Q268.41 13.11 267.70 12.83Q266.99 12.54 266.48 12.00Q265.96 11.45 265.67 10.64Q265.38 9.83 265.38 8.78L265.38 8.78Q265.38 7.94 265.64 7.20Q265.90 6.46 266.39 5.92Q266.88 5.38 267.58 5.08Q268.29 4.77 269.17 4.77L269.17 4.77Q269.90 4.77 270.52 5.01Q271.14 5.26 271.59 5.72Q272.04 6.18 272.30 6.85Q272.55 7.53 272.55 8.39L272.55 8.39Q272.55 8.73 272.48 8.84Q272.41 8.95 272.21 8.95L272.21 8.95L266.79 8.95Q266.82 9.72 267.00 10.29Q267.19 10.86 267.53 11.24Q267.86 11.62 268.33 11.80Q268.79 11.99 269.37 11.99L269.37 11.99Q269.90 11.99 270.29 11.87Q270.68 11.74 270.96 11.60Q271.24 11.46 271.43 11.33Q271.62 11.21 271.75 11.21L271.75 11.21Q271.93 11.21 272.02 11.34L272.02 11.34Z"></path></svg></svg>